<svg xmlns="http://www.w3.org/2000/svg" xmlns:xlink="http://www.w3.org/1999/xlink" width="1440" zoomAndPan="magnify" viewBox="0 0 1080 1079.999946" height="1440" preserveAspectRatio="xMidYMid meet" version="1.0"><defs><clipPath id="0e0e315779"><path d="M 295.773438 479.601562 L 311.191406 479.601562 L 311.191406 565.933594 L 295.773438 565.933594 Z M 295.773438 479.601562 " clip-rule="nonzero"/></clipPath><clipPath id="2cc60124a2"><path d="M 0.773438 0.601562 L 16.191406 0.601562 L 16.191406 86.933594 L 0.773438 86.933594 Z M 0.773438 0.601562 " clip-rule="nonzero"/></clipPath><clipPath id="a17b894eba"><rect x="0" width="17" y="0" height="87"/></clipPath><clipPath id="fa5e296cfa"><path d="M 318.414062 503 L 375.785156 503 L 375.785156 566 L 318.414062 566 Z M 318.414062 503 " clip-rule="nonzero"/></clipPath><clipPath id="447e8e0647"><path d="M 375.324219 529.183594 L 375.324219 565.933594 L 360.523438 565.933594 L 360.523438 529.550781 C 360.523438 520.792969 354.113281 516.851562 346.953125 516.851562 C 339.792969 516.851562 333.382812 520.800781 333.382812 529.550781 L 333.382812 565.933594 L 318.59375 565.933594 L 318.59375 529.183594 C 318.59375 518.453125 326.613281 503.164062 346.960938 503.164062 C 367.3125 503.164062 375.324219 518.453125 375.324219 529.183594 " clip-rule="nonzero"/></clipPath><clipPath id="3d280b8fb0"><path d="M 0.480469 0.0390625 L 57.359375 0.0390625 L 57.359375 63 L 0.480469 63 Z M 0.480469 0.0390625 " clip-rule="nonzero"/></clipPath><clipPath id="a9418e2ffa"><path d="M 57.324219 26.183594 L 57.324219 62.933594 L 42.523438 62.933594 L 42.523438 26.550781 C 42.523438 17.792969 36.113281 13.851562 28.953125 13.851562 C 21.792969 13.851562 15.382812 17.800781 15.382812 26.550781 L 15.382812 62.933594 L 0.59375 62.933594 L 0.59375 26.183594 C 0.59375 15.453125 8.613281 0.164062 28.960938 0.164062 C 49.3125 0.164062 57.324219 15.453125 57.324219 26.183594 " clip-rule="nonzero"/></clipPath><clipPath id="5520560e22"><rect x="0" width="58" y="0" height="63"/></clipPath><clipPath id="fca2a4f1a9"><path d="M 382.5625 479.5 L 443.0625 479.5 L 443.0625 566 L 382.5625 566 Z M 382.5625 479.5 " clip-rule="nonzero"/></clipPath><clipPath id="f71fc38ef2"><path d="M 382.734375 479.601562 L 397.53125 479.601562 L 397.53125 542.132812 L 425.402344 504.273438 L 443.042969 504.273438 L 420.222656 535.101562 L 442.542969 565.933594 L 425.03125 565.933594 L 411.460938 547.0625 L 397.53125 565.933594 L 382.734375 565.933594 Z M 382.734375 479.601562 " clip-rule="nonzero"/></clipPath><clipPath id="a750ce1bc1"><path d="M 0.5625 0.519531 L 61.0625 0.519531 L 61.0625 87 L 0.5625 87 Z M 0.5625 0.519531 " clip-rule="nonzero"/></clipPath><clipPath id="cd2fda78f5"><path d="M 0.734375 0.601562 L 15.53125 0.601562 L 15.53125 63.132812 L 43.402344 25.273438 L 61.042969 25.273438 L 38.222656 56.101562 L 60.542969 86.933594 L 43.03125 86.933594 L 29.460938 68.0625 L 15.53125 86.933594 L 0.734375 86.933594 Z M 0.734375 0.601562 " clip-rule="nonzero"/></clipPath><clipPath id="e44868cac8"><rect x="0" width="62" y="0" height="87"/></clipPath><clipPath id="c33e9f7404"><path d="M 444.105469 503 L 493.652344 503 L 493.652344 567 L 444.105469 567 Z M 444.105469 503 " clip-rule="nonzero"/></clipPath><clipPath id="83393f06d1"><path d="M 493.613281 547.3125 C 493.613281 559.890625 483.621094 566.671875 469.5625 566.671875 C 456.492188 566.671875 448.101562 560.753906 444.28125 557.300781 L 452.171875 545.710938 C 457.351562 550.640625 463.894531 553.113281 469.933594 553.113281 C 474.992188 553.113281 478.8125 551.382812 478.8125 547.8125 C 478.8125 537.203125 445.261719 543.742188 445.261719 521.171875 C 445.261719 509.824219 453.773438 503.292969 467.710938 503.292969 C 479.921875 503.292969 487.941406 508.222656 493.363281 512.664062 L 485.472656 524.121094 C 478.933594 518.691406 472.523438 516.84375 467.460938 516.84375 C 462.652344 516.84375 460.0625 518.441406 460.0625 520.914062 C 460.0625 529.914062 493.613281 524.242188 493.613281 547.300781 " clip-rule="nonzero"/></clipPath><clipPath id="25eceefdb1"><path d="M 0.238281 0.28125 L 49.652344 0.28125 L 49.652344 63.878906 L 0.238281 63.878906 Z M 0.238281 0.28125 " clip-rule="nonzero"/></clipPath><clipPath id="96a566c605"><path d="M 49.613281 44.3125 C 49.613281 56.890625 39.621094 63.671875 25.5625 63.671875 C 12.492188 63.671875 4.101562 57.753906 0.28125 54.300781 L 8.171875 42.710938 C 13.351562 47.640625 19.894531 50.113281 25.933594 50.113281 C 30.992188 50.113281 34.8125 48.382812 34.8125 44.8125 C 34.8125 34.203125 1.261719 40.742188 1.261719 18.171875 C 1.261719 6.824219 9.773438 0.292969 23.710938 0.292969 C 35.921875 0.292969 43.941406 5.222656 49.363281 9.664062 L 41.472656 21.121094 C 34.933594 15.691406 28.523438 13.84375 23.460938 13.84375 C 18.652344 13.84375 16.0625 15.441406 16.0625 17.914062 C 16.0625 26.914062 49.613281 21.242188 49.613281 44.300781 " clip-rule="nonzero"/></clipPath><clipPath id="9f76bb8347"><rect x="0" width="50" y="0" height="64"/></clipPath><clipPath id="7e2ae84cd5"><path d="M 499 503 L 563.539062 503 L 563.539062 591 L 499 591 Z M 499 503 " clip-rule="nonzero"/></clipPath><clipPath id="6fcc57dd66"><path d="M 531.113281 516.84375 C 520.871094 516.84375 514.09375 523.621094 514.09375 535.09375 C 514.09375 546.5625 520.871094 553.34375 531.113281 553.34375 C 541.472656 553.34375 548.253906 546.5625 548.253906 535.09375 C 548.253906 523.621094 541.472656 516.84375 531.113281 516.84375 M 499.292969 590.601562 L 499.292969 534.972656 C 499.292969 515.113281 513.472656 503.273438 531.484375 503.273438 C 550.234375 503.273438 563.050781 515.972656 563.050781 534.972656 C 563.050781 554.09375 550.222656 566.914062 532.222656 566.914062 C 523.34375 566.914062 517.054688 563.703125 514.09375 559.882812 L 514.09375 590.59375 Z M 499.292969 590.601562 " clip-rule="nonzero"/></clipPath><clipPath id="fff95ceba5"><path d="M 0.199219 0.0390625 L 64.28125 0.0390625 L 64.28125 87.640625 L 0.199219 87.640625 Z M 0.199219 0.0390625 " clip-rule="nonzero"/></clipPath><clipPath id="51c82274e5"><path d="M 32.113281 13.84375 C 21.871094 13.84375 15.09375 20.621094 15.09375 32.09375 C 15.09375 43.5625 21.871094 50.34375 32.113281 50.34375 C 42.472656 50.34375 49.253906 43.5625 49.253906 32.09375 C 49.253906 20.621094 42.472656 13.84375 32.113281 13.84375 M 0.292969 87.601562 L 0.292969 31.972656 C 0.292969 12.113281 14.472656 0.273438 32.484375 0.273438 C 51.234375 0.273438 64.050781 12.972656 64.050781 31.972656 C 64.050781 51.09375 51.222656 63.914062 33.222656 63.914062 C 24.34375 63.914062 18.054688 60.703125 15.09375 56.882812 L 15.09375 87.59375 Z M 0.292969 87.601562 " clip-rule="nonzero"/></clipPath><clipPath id="90c560e0fa"><rect x="0" width="65" y="0" height="88"/></clipPath><clipPath id="a55b5fe4a7"><path d="M 568.234375 478 L 584.921875 478 L 584.921875 566 L 568.234375 566 Z M 568.234375 478 " clip-rule="nonzero"/></clipPath><clipPath id="f2b77801e4"><path d="M 569.222656 504.261719 L 584.023438 504.261719 L 584.023438 565.933594 L 569.222656 565.933594 Z M 576.632812 478.242188 C 581.191406 478.242188 584.773438 481.941406 584.773438 486.382812 C 584.773438 491.074219 581.191406 494.640625 576.632812 494.640625 C 572.074219 494.640625 568.492188 491.0625 568.492188 486.382812 C 568.492188 481.941406 572.074219 478.242188 576.632812 478.242188 " clip-rule="nonzero"/></clipPath><clipPath id="c688c9db88"><path d="M 0.320312 0.078125 L 16.878906 0.078125 L 16.878906 88 L 0.320312 88 Z M 0.320312 0.078125 " clip-rule="nonzero"/></clipPath><clipPath id="7d281ddca5"><path d="M 1.222656 26.261719 L 16.023438 26.261719 L 16.023438 87.933594 L 1.222656 87.933594 Z M 8.632812 0.242188 C 13.191406 0.242188 16.773438 3.941406 16.773438 8.382812 C 16.773438 13.074219 13.191406 16.640625 8.632812 16.640625 C 4.074219 16.640625 0.492188 13.0625 0.492188 8.382812 C 0.492188 3.941406 4.074219 0.242188 8.632812 0.242188 " clip-rule="nonzero"/></clipPath><clipPath id="6e3da8fbad"><rect x="0" width="17" y="0" height="88"/></clipPath><clipPath id="dc062600f0"><path d="M 590.660156 503 L 621.429688 503 L 621.429688 566 L 590.660156 566 Z M 590.660156 503 " clip-rule="nonzero"/></clipPath><clipPath id="6c96ea3576"><path d="M 621.402344 503.152344 L 621.402344 516.722656 C 611.53125 516.722656 605.613281 521.53125 605.613281 531.402344 L 605.613281 565.933594 L 590.8125 565.933594 L 590.8125 531.402344 C 590.8125 512.652344 602.652344 503.164062 621.402344 503.164062 " clip-rule="nonzero"/></clipPath><clipPath id="241ab9c839"><path d="M 0.660156 0.0390625 L 31.429688 0.0390625 L 31.429688 63 L 0.660156 63 Z M 0.660156 0.0390625 " clip-rule="nonzero"/></clipPath><clipPath id="8000c12b76"><path d="M 31.402344 0.152344 L 31.402344 13.722656 C 21.53125 13.722656 15.613281 18.53125 15.613281 28.402344 L 15.613281 62.933594 L 0.8125 62.933594 L 0.8125 28.402344 C 0.8125 9.652344 12.652344 0.164062 31.402344 0.164062 " clip-rule="nonzero"/></clipPath><clipPath id="6c55ff3de2"><rect x="0" width="32" y="0" height="63"/></clipPath><clipPath id="79cc8f023b"><path d="M 622 503 L 686.101562 503 L 686.101562 567.121094 L 622 567.121094 Z M 622 503 " clip-rule="nonzero"/></clipPath><clipPath id="6b9bbda613"><path d="M 669.621094 526.460938 C 667.03125 520.421875 661.484375 516.960938 654.082031 516.960938 C 646.800781 516.960938 641.253906 520.414062 638.664062 526.460938 Z M 668.023438 546.8125 L 684.183594 546.8125 C 680.113281 559.273438 669.132812 567.042969 654.210938 567.042969 C 635.09375 567.042969 622.273438 554.210938 622.273438 535.101562 C 622.273438 516.113281 635.101562 503.402344 654.210938 503.402344 C 673.324219 503.402344 686.03125 516.101562 686.03125 535.101562 C 686.03125 536.832031 685.914062 538.433594 685.78125 540.03125 L 637.5625 540.03125 C 639.164062 548.542969 645.332031 553.472656 654.09375 553.472656 C 660.261719 553.472656 665.074219 551.132812 668.03125 546.8125 " clip-rule="nonzero"/></clipPath><clipPath id="fbf3a0b72d"><path d="M 0.078125 0.28125 L 64.101562 0.28125 L 64.101562 64.121094 L 0.078125 64.121094 Z M 0.078125 0.28125 " clip-rule="nonzero"/></clipPath><clipPath id="ad1bff3d2d"><path d="M 47.621094 23.460938 C 45.03125 17.421875 39.484375 13.960938 32.082031 13.960938 C 24.800781 13.960938 19.253906 17.414062 16.664062 23.460938 Z M 46.023438 43.8125 L 62.183594 43.8125 C 58.113281 56.273438 47.132812 64.042969 32.210938 64.042969 C 13.09375 64.042969 0.273438 51.210938 0.273438 32.101562 C 0.273438 13.113281 13.101562 0.402344 32.210938 0.402344 C 51.324219 0.402344 64.03125 13.101562 64.03125 32.101562 C 64.03125 33.832031 63.914062 35.433594 63.78125 37.03125 L 15.5625 37.03125 C 17.164062 45.542969 23.332031 50.472656 32.09375 50.472656 C 38.261719 50.472656 43.074219 48.132812 46.03125 43.8125 " clip-rule="nonzero"/></clipPath><clipPath id="f05e42c6d9"><rect x="0" width="65" y="0" height="65"/></clipPath><clipPath id="57620d4679"><path d="M 528 579 L 530 579 L 530 596 L 528 596 Z M 528 579 " clip-rule="nonzero"/></clipPath><clipPath id="0ceca0608b"><path d="M 528.941406 579.09375 C 529.460938 579.09375 529.863281 579.53125 529.863281 580.074219 L 529.863281 594.914062 C 529.863281 595.402344 529.453125 595.84375 528.941406 595.84375 C 528.433594 595.84375 528.023438 595.414062 528.023438 594.914062 L 528.023438 580.074219 C 528.023438 579.53125 528.433594 579.09375 528.941406 579.09375 " clip-rule="nonzero"/></clipPath><clipPath id="8a5707619c"><path d="M 0 0 L 1.921875 0 L 1.921875 16.921875 L 0 16.921875 Z M 0 0 " clip-rule="nonzero"/></clipPath><clipPath id="582cc45f10"><path d="M 0.941406 0.09375 C 1.460938 0.09375 1.863281 0.53125 1.863281 1.074219 L 1.863281 15.914062 C 1.863281 16.402344 1.453125 16.84375 0.941406 16.84375 C 0.433594 16.84375 0.0234375 16.414062 0.0234375 15.914062 L 0.0234375 1.074219 C 0.0234375 0.53125 0.433594 0.09375 0.941406 0.09375 " clip-rule="nonzero"/></clipPath><clipPath id="ad1c0d303e"><rect x="0" width="2" y="0" height="17"/></clipPath><clipPath id="c593b07475"><path d="M 532.769531 583.289062 L 543.722656 583.289062 L 543.722656 596 L 532.769531 596 Z M 532.769531 583.289062 " clip-rule="nonzero"/></clipPath><clipPath id="edf1f0411c"><path d="M 538.234375 583.382812 C 541.191406 583.382812 543.644531 585.800781 543.644531 588.792969 L 543.644531 594.960938 C 543.644531 595.453125 543.234375 595.832031 542.773438 595.832031 C 542.3125 595.832031 541.902344 595.453125 541.902344 594.960938 L 541.902344 588.792969 C 541.902344 586.78125 540.242188 585.09375 538.234375 585.09375 C 536.164062 585.09375 534.511719 586.773438 534.511719 588.792969 L 534.511719 594.960938 C 534.511719 595.453125 534.132812 595.832031 533.671875 595.832031 C 533.183594 595.832031 532.800781 595.453125 532.800781 594.960938 L 532.800781 588.792969 C 532.800781 585.800781 535.253906 583.382812 538.242188 583.382812 " clip-rule="nonzero"/></clipPath><clipPath id="95c3c21291"><path d="M 0.800781 0.289062 L 11.722656 0.289062 L 11.722656 12.921875 L 0.800781 12.921875 Z M 0.800781 0.289062 " clip-rule="nonzero"/></clipPath><clipPath id="d75e334ffd"><path d="M 6.234375 0.382812 C 9.191406 0.382812 11.644531 2.800781 11.644531 5.792969 L 11.644531 11.960938 C 11.644531 12.453125 11.234375 12.832031 10.773438 12.832031 C 10.3125 12.832031 9.902344 12.453125 9.902344 11.960938 L 9.902344 5.792969 C 9.902344 3.78125 8.242188 2.09375 6.234375 2.09375 C 4.164062 2.09375 2.511719 3.773438 2.511719 5.792969 L 2.511719 11.960938 C 2.511719 12.453125 2.132812 12.832031 1.671875 12.832031 C 1.183594 12.832031 0.800781 12.453125 0.800781 11.960938 L 0.800781 5.792969 C 0.800781 2.800781 3.253906 0.382812 6.242188 0.382812 " clip-rule="nonzero"/></clipPath><clipPath id="8cfa9d5157"><rect x="0" width="12" y="0" height="13"/></clipPath><clipPath id="58b35515fb"><path d="M 545.285156 583.289062 L 556.757812 583.289062 L 556.757812 596 L 545.285156 596 Z M 545.285156 583.289062 " clip-rule="nonzero"/></clipPath><clipPath id="c7b13e1cef"><path d="M 549.371094 583.382812 L 554.644531 583.382812 C 555.101562 583.382812 555.484375 583.792969 555.484375 584.253906 C 555.484375 584.691406 555.101562 585.09375 554.644531 585.09375 L 549.261719 585.09375 C 547.222656 585.09375 546.761719 587.164062 548.722656 587.921875 L 553.832031 589.800781 C 555.902344 590.5625 556.601562 592.222656 556.222656 593.582031 C 555.863281 594.800781 554.613281 595.84375 552.710938 595.84375 L 547.082031 595.84375 C 546.59375 595.84375 546.210938 595.460938 546.210938 594.972656 C 546.210938 594.511719 546.59375 594.132812 547.082031 594.132812 L 552.84375 594.132812 C 554.824219 594.132812 555.3125 592.09375 553.363281 591.300781 L 548.253906 589.402344 C 546.183594 588.671875 545.484375 587.011719 545.863281 585.652344 C 546.210938 584.433594 547.460938 583.390625 549.371094 583.390625 Z M 549.371094 583.382812 " clip-rule="nonzero"/></clipPath><clipPath id="406a745ab9"><path d="M 0.285156 0.289062 L 11.757812 0.289062 L 11.757812 12.921875 L 0.285156 12.921875 Z M 0.285156 0.289062 " clip-rule="nonzero"/></clipPath><clipPath id="ccc2e3ca51"><path d="M 4.371094 0.382812 L 9.644531 0.382812 C 10.101562 0.382812 10.484375 0.792969 10.484375 1.253906 C 10.484375 1.691406 10.101562 2.09375 9.644531 2.09375 L 4.261719 2.09375 C 2.222656 2.09375 1.761719 4.164062 3.722656 4.921875 L 8.832031 6.800781 C 10.902344 7.5625 11.601562 9.222656 11.222656 10.582031 C 10.863281 11.800781 9.613281 12.84375 7.710938 12.84375 L 2.082031 12.84375 C 1.59375 12.84375 1.210938 12.460938 1.210938 11.972656 C 1.210938 11.511719 1.59375 11.132812 2.082031 11.132812 L 7.84375 11.132812 C 9.824219 11.132812 10.3125 9.09375 8.363281 8.300781 L 3.253906 6.402344 C 1.183594 5.671875 0.484375 4.011719 0.863281 2.652344 C 1.210938 1.433594 2.460938 0.390625 4.371094 0.390625 Z M 4.371094 0.382812 " clip-rule="nonzero"/></clipPath><clipPath id="ad980da3c9"><rect x="0" width="12" y="0" height="13"/></clipPath><clipPath id="ae191dcc53"><path d="M 558 583.289062 L 570.839844 583.289062 L 570.839844 600.5 L 558 600.5 Z M 558 583.289062 " clip-rule="nonzero"/></clipPath><clipPath id="582025709f"><path d="M 564.503906 585.074219 C 562.03125 585.074219 559.992188 587.113281 559.992188 589.613281 C 559.992188 592.113281 562.03125 594.121094 564.503906 594.121094 C 567.03125 594.121094 569.042969 592.113281 569.042969 589.613281 C 569.042969 587.113281 567.03125 585.074219 564.503906 585.074219 M 564.503906 583.382812 C 567.953125 583.382812 570.753906 586.152344 570.753906 589.613281 C 570.753906 593.074219 567.953125 595.832031 564.503906 595.832031 C 562.601562 595.832031 560.914062 594.882812 559.992188 593.414062 L 559.992188 599.253906 C 559.992188 599.710938 559.613281 600.09375 559.152344 600.09375 C 558.691406 600.09375 558.3125 599.710938 558.3125 599.253906 L 558.3125 589.601562 C 558.3125 586.152344 561.113281 583.371094 564.511719 583.371094 " clip-rule="nonzero"/></clipPath><clipPath id="7303b019e0"><path d="M 0.238281 0.289062 L 12.839844 0.289062 L 12.839844 17.238281 L 0.238281 17.238281 Z M 0.238281 0.289062 " clip-rule="nonzero"/></clipPath><clipPath id="36a3649d65"><path d="M 6.503906 2.074219 C 4.03125 2.074219 1.992188 4.113281 1.992188 6.613281 C 1.992188 9.113281 4.03125 11.121094 6.503906 11.121094 C 9.03125 11.121094 11.042969 9.113281 11.042969 6.613281 C 11.042969 4.113281 9.03125 2.074219 6.503906 2.074219 M 6.503906 0.382812 C 9.953125 0.382812 12.753906 3.152344 12.753906 6.613281 C 12.753906 10.074219 9.953125 12.832031 6.503906 12.832031 C 4.601562 12.832031 2.914062 11.882812 1.992188 10.414062 L 1.992188 16.253906 C 1.992188 16.710938 1.613281 17.09375 1.152344 17.09375 C 0.691406 17.09375 0.3125 16.710938 0.3125 16.253906 L 0.3125 6.601562 C 0.3125 3.152344 3.113281 0.371094 6.511719 0.371094 " clip-rule="nonzero"/></clipPath><clipPath id="d631ba862a"><rect x="0" width="13" y="0" height="18"/></clipPath><clipPath id="9e20b00009"><path d="M 572.925781 579.636719 L 575.535156 579.636719 L 575.535156 596 L 572.925781 596 Z M 572.925781 579.636719 " clip-rule="nonzero"/></clipPath><clipPath id="48192aeaa1"><path d="M 574.03125 583.382812 C 574.492188 583.382812 574.871094 583.792969 574.871094 584.222656 L 574.871094 594.960938 C 574.871094 595.453125 574.492188 595.832031 574.03125 595.832031 C 573.542969 595.832031 573.164062 595.453125 573.164062 594.960938 L 573.164062 584.222656 C 573.164062 583.792969 573.542969 583.382812 574.03125 583.382812 M 574.03125 579.871094 C 574.632812 579.871094 575.121094 580.363281 575.121094 580.980469 C 575.121094 581.582031 574.632812 582.042969 574.03125 582.042969 C 573.433594 582.042969 572.941406 581.582031 572.941406 580.980469 C 572.941406 580.351562 573.433594 579.871094 574.03125 579.871094 " clip-rule="nonzero"/></clipPath><clipPath id="def0dae69e"><path d="M 0.925781 0.839844 L 3.28125 0.839844 L 3.28125 16.921875 L 0.925781 16.921875 Z M 0.925781 0.839844 " clip-rule="nonzero"/></clipPath><clipPath id="1153f07c11"><path d="M 2.03125 4.382812 C 2.492188 4.382812 2.871094 4.792969 2.871094 5.222656 L 2.871094 15.960938 C 2.871094 16.453125 2.492188 16.832031 2.03125 16.832031 C 1.542969 16.832031 1.164062 16.453125 1.164062 15.960938 L 1.164062 5.222656 C 1.164062 4.792969 1.542969 4.382812 2.03125 4.382812 M 2.03125 0.871094 C 2.632812 0.871094 3.121094 1.363281 3.121094 1.980469 C 3.121094 2.582031 2.632812 3.042969 2.03125 3.042969 C 1.433594 3.042969 0.941406 2.582031 0.941406 1.980469 C 0.941406 1.351562 1.433594 0.871094 2.03125 0.871094 " clip-rule="nonzero"/></clipPath><clipPath id="7f259b868b"><rect x="0" width="4" y="0" height="17"/></clipPath><clipPath id="1e8c814f4a"><path d="M 577.621094 583.289062 L 584 583.289062 L 584 596 L 577.621094 596 Z M 577.621094 583.289062 " clip-rule="nonzero"/></clipPath><clipPath id="e110a9b38e"><path d="M 583.113281 583.382812 C 583.574219 583.382812 583.953125 583.792969 583.953125 584.253906 C 583.953125 584.710938 583.574219 585.09375 583.113281 585.09375 C 581.042969 585.09375 579.394531 586.773438 579.394531 588.792969 L 579.394531 595.023438 C 579.394531 595.511719 579.011719 595.890625 578.550781 595.890625 C 578.0625 595.890625 577.683594 595.511719 577.683594 595.023438 L 577.683594 588.792969 C 577.683594 585.800781 580.132812 583.382812 583.121094 583.382812 " clip-rule="nonzero"/></clipPath><clipPath id="4d84a46056"><path d="M 0.679688 0.289062 L 7 0.289062 L 7 12.921875 L 0.679688 12.921875 Z M 0.679688 0.289062 " clip-rule="nonzero"/></clipPath><clipPath id="fe109e10ea"><path d="M 6.113281 0.382812 C 6.574219 0.382812 6.953125 0.792969 6.953125 1.253906 C 6.953125 1.710938 6.574219 2.09375 6.113281 2.09375 C 4.042969 2.09375 2.394531 3.773438 2.394531 5.792969 L 2.394531 12.023438 C 2.394531 12.511719 2.011719 12.890625 1.550781 12.890625 C 1.0625 12.890625 0.683594 12.511719 0.683594 12.023438 L 0.683594 5.792969 C 0.683594 2.800781 3.132812 0.382812 6.121094 0.382812 " clip-rule="nonzero"/></clipPath><clipPath id="9544aabc92"><rect x="0" width="7" y="0" height="13"/></clipPath><clipPath id="f05a216e27"><path d="M 584.402344 583.289062 L 596.917969 583.289062 L 596.917969 596 L 584.402344 596 Z M 584.402344 583.289062 " clip-rule="nonzero"/></clipPath><clipPath id="8e39a917db"><path d="M 590.632812 585.09375 C 588.371094 585.09375 586.503906 586.800781 586.234375 588.980469 L 595.011719 588.980469 C 594.792969 586.8125 592.894531 585.09375 590.632812 585.09375 M 590.632812 583.382812 C 593.863281 583.382812 596.5625 585.882812 596.773438 589.0625 C 596.933594 589.773438 596.664062 590.261719 595.824219 590.261719 L 586.234375 590.261719 C 586.503906 592.433594 588.382812 594.121094 590.632812 594.121094 C 591.851562 594.121094 592.992188 593.601562 593.8125 592.792969 C 594.003906 592.632812 594.222656 592.550781 594.414062 592.550781 C 594.652344 592.550781 594.871094 592.632812 595.011719 592.792969 C 595.363281 593.140625 595.363281 593.664062 595.011719 594.011719 C 593.902344 595.121094 592.351562 595.832031 590.632812 595.832031 C 587.210938 595.832031 584.414062 593.03125 584.414062 589.613281 C 584.414062 586.191406 587.210938 583.382812 590.632812 583.382812 " clip-rule="nonzero"/></clipPath><clipPath id="4d2e62a294"><path d="M 0.402344 0.289062 L 12.917969 0.289062 L 12.917969 12.921875 L 0.402344 12.921875 Z M 0.402344 0.289062 " clip-rule="nonzero"/></clipPath><clipPath id="d3c2ff3fdb"><path d="M 6.632812 2.09375 C 4.371094 2.09375 2.503906 3.800781 2.234375 5.980469 L 11.011719 5.980469 C 10.792969 3.8125 8.894531 2.09375 6.632812 2.09375 M 6.632812 0.382812 C 9.863281 0.382812 12.5625 2.882812 12.773438 6.0625 C 12.933594 6.773438 12.664062 7.261719 11.824219 7.261719 L 2.234375 7.261719 C 2.503906 9.433594 4.382812 11.121094 6.632812 11.121094 C 7.851562 11.121094 8.992188 10.601562 9.8125 9.792969 C 10.003906 9.632812 10.222656 9.550781 10.414062 9.550781 C 10.652344 9.550781 10.871094 9.632812 11.011719 9.792969 C 11.363281 10.140625 11.363281 10.664062 11.011719 11.011719 C 9.902344 12.121094 8.351562 12.832031 6.632812 12.832031 C 3.210938 12.832031 0.414062 10.03125 0.414062 6.613281 C 0.414062 3.191406 3.210938 0.382812 6.632812 0.382812 " clip-rule="nonzero"/></clipPath><clipPath id="c2af4d6459"><rect x="0" width="13" y="0" height="13"/></clipPath><clipPath id="45ced3d397"><path d="M 598 579 L 611 579 L 611 596 L 598 596 Z M 598 579 " clip-rule="nonzero"/></clipPath><clipPath id="e38083ac85"><path d="M 600.164062 589.601562 C 600.164062 592.101562 602.203125 594.113281 604.671875 594.113281 C 607.171875 594.113281 609.152344 592.101562 609.152344 589.601562 C 609.152344 587.074219 607.171875 585.0625 604.671875 585.0625 C 602.203125 585.0625 600.164062 587.074219 600.164062 589.601562 M 598.472656 589.601562 C 598.472656 586.152344 601.242188 583.371094 604.671875 583.371094 C 606.601562 583.371094 608.234375 584.351562 609.152344 585.792969 L 609.152344 579.953125 C 609.152344 579.460938 609.5625 579.082031 610.023438 579.082031 C 610.511719 579.082031 610.921875 579.460938 610.921875 579.953125 L 610.921875 589.601562 C 610.921875 593.050781 608.121094 595.824219 604.671875 595.824219 C 601.253906 595.824219 598.472656 593.050781 598.472656 589.601562 " clip-rule="nonzero"/></clipPath><clipPath id="e27627faa9"><path d="M 0.320312 0 L 13 0 L 13 16.921875 L 0.320312 16.921875 Z M 0.320312 0 " clip-rule="nonzero"/></clipPath><clipPath id="6098485ed1"><path d="M 2.164062 10.601562 C 2.164062 13.101562 4.203125 15.113281 6.671875 15.113281 C 9.171875 15.113281 11.152344 13.101562 11.152344 10.601562 C 11.152344 8.074219 9.171875 6.0625 6.671875 6.0625 C 4.203125 6.0625 2.164062 8.074219 2.164062 10.601562 M 0.472656 10.601562 C 0.472656 7.152344 3.242188 4.371094 6.671875 4.371094 C 8.601562 4.371094 10.234375 5.351562 11.152344 6.792969 L 11.152344 0.953125 C 11.152344 0.460938 11.5625 0.0820312 12.023438 0.0820312 C 12.511719 0.0820312 12.921875 0.460938 12.921875 0.953125 L 12.921875 10.601562 C 12.921875 14.050781 10.121094 16.824219 6.671875 16.824219 C 3.253906 16.824219 0.472656 14.050781 0.472656 10.601562 " clip-rule="nonzero"/></clipPath><clipPath id="a5bad83c1f"><rect x="0" width="13" y="0" height="17"/></clipPath><clipPath id="dfee54fd45"><path d="M 620.910156 579 L 633.425781 579 L 633.425781 596 L 620.910156 596 Z M 620.910156 579 " clip-rule="nonzero"/></clipPath><clipPath id="a5ba9047bf"><path d="M 622.710938 589.601562 C 622.710938 592.101562 624.722656 594.113281 627.191406 594.113281 C 629.691406 594.113281 631.703125 592.101562 631.703125 589.601562 C 631.703125 587.074219 629.691406 585.0625 627.191406 585.0625 C 624.722656 585.0625 622.710938 587.074219 622.710938 589.601562 M 620.972656 579.953125 C 620.972656 579.460938 621.351562 579.082031 621.84375 579.082031 C 622.332031 579.082031 622.710938 579.460938 622.710938 579.953125 L 622.710938 585.792969 C 623.632812 584.351562 625.324219 583.371094 627.191406 583.371094 C 630.644531 583.371094 633.414062 586.140625 633.414062 589.601562 C 633.414062 593.0625 630.644531 595.824219 627.191406 595.824219 C 623.773438 595.824219 620.972656 593.050781 620.972656 589.601562 Z M 620.972656 579.953125 " clip-rule="nonzero"/></clipPath><clipPath id="67b2ad19ea"><path d="M 0.910156 0 L 13.425781 0 L 13.425781 16.921875 L 0.910156 16.921875 Z M 0.910156 0 " clip-rule="nonzero"/></clipPath><clipPath id="1e42f99c17"><path d="M 2.710938 10.601562 C 2.710938 13.101562 4.722656 15.113281 7.191406 15.113281 C 9.691406 15.113281 11.703125 13.101562 11.703125 10.601562 C 11.703125 8.074219 9.691406 6.0625 7.191406 6.0625 C 4.722656 6.0625 2.710938 8.074219 2.710938 10.601562 M 0.972656 0.953125 C 0.972656 0.460938 1.351562 0.0820312 1.84375 0.0820312 C 2.332031 0.0820312 2.710938 0.460938 2.710938 0.953125 L 2.710938 6.792969 C 3.632812 5.351562 5.324219 4.371094 7.191406 4.371094 C 10.644531 4.371094 13.414062 7.140625 13.414062 10.601562 C 13.414062 14.0625 10.644531 16.824219 7.191406 16.824219 C 3.773438 16.824219 0.972656 14.050781 0.972656 10.601562 Z M 0.972656 0.953125 " clip-rule="nonzero"/></clipPath><clipPath id="c1d7ee98fd"><rect x="0" width="14" y="0" height="17"/></clipPath><clipPath id="75708e9522"><path d="M 635.511719 583.289062 L 646.464844 583.289062 L 646.464844 602 L 635.511719 602 Z M 635.511719 583.289062 " clip-rule="nonzero"/></clipPath><clipPath id="d55cd1047d"><path d="M 641.023438 600.074219 C 642.621094 600.074219 644.042969 599.230469 644.824219 597.953125 C 645.011719 597.683594 645.28125 597.542969 645.582031 597.542969 C 645.722656 597.542969 645.882812 597.59375 646.011719 597.683594 C 646.421875 597.953125 646.53125 598.472656 646.28125 598.882812 C 645.191406 600.621094 643.210938 601.761719 641.011719 601.761719 C 638.8125 601.761719 636.882812 600.621094 635.761719 598.882812 C 635.492188 598.472656 635.621094 597.960938 636.03125 597.683594 C 636.171875 597.601562 636.300781 597.542969 636.472656 597.542969 C 636.742188 597.542969 637.042969 597.683594 637.234375 597.953125 C 638.023438 599.230469 639.433594 600.074219 641.011719 600.074219 M 635.601562 584.222656 C 635.601562 583.761719 635.984375 583.382812 636.472656 583.382812 C 636.902344 583.382812 637.3125 583.761719 637.3125 584.222656 L 637.3125 590.390625 C 637.3125 592.433594 638.972656 594.113281 641.011719 594.113281 C 643.050781 594.113281 644.734375 592.421875 644.734375 590.390625 L 644.734375 584.222656 C 644.734375 583.761719 645.113281 583.382812 645.574219 583.382812 C 646.03125 583.382812 646.414062 583.761719 646.414062 584.222656 L 646.414062 590.390625 C 646.414062 593.351562 643.992188 595.832031 641.003906 595.832031 C 638.042969 595.832031 635.59375 593.382812 635.59375 590.390625 Z M 635.601562 584.222656 " clip-rule="nonzero"/></clipPath><clipPath id="0bea11475e"><path d="M 0.511719 0.289062 L 11.464844 0.289062 L 11.464844 18.921875 L 0.511719 18.921875 Z M 0.511719 0.289062 " clip-rule="nonzero"/></clipPath><clipPath id="0a99b84817"><path d="M 6.023438 17.074219 C 7.621094 17.074219 9.042969 16.230469 9.824219 14.953125 C 10.011719 14.683594 10.28125 14.542969 10.582031 14.542969 C 10.722656 14.542969 10.882812 14.59375 11.011719 14.683594 C 11.421875 14.953125 11.53125 15.472656 11.28125 15.882812 C 10.191406 17.621094 8.210938 18.761719 6.011719 18.761719 C 3.8125 18.761719 1.882812 17.621094 0.761719 15.882812 C 0.492188 15.472656 0.621094 14.960938 1.03125 14.683594 C 1.171875 14.601562 1.300781 14.542969 1.472656 14.542969 C 1.742188 14.542969 2.042969 14.683594 2.234375 14.953125 C 3.023438 16.230469 4.433594 17.074219 6.011719 17.074219 M 0.601562 1.222656 C 0.601562 0.761719 0.984375 0.382812 1.472656 0.382812 C 1.902344 0.382812 2.3125 0.761719 2.3125 1.222656 L 2.3125 7.390625 C 2.3125 9.433594 3.972656 11.113281 6.011719 11.113281 C 8.050781 11.113281 9.734375 9.421875 9.734375 7.390625 L 9.734375 1.222656 C 9.734375 0.761719 10.113281 0.382812 10.574219 0.382812 C 11.03125 0.382812 11.414062 0.761719 11.414062 1.222656 L 11.414062 7.390625 C 11.414062 10.351562 8.992188 12.832031 6.003906 12.832031 C 3.042969 12.832031 0.59375 10.382812 0.59375 7.390625 Z M 0.601562 1.222656 " clip-rule="nonzero"/></clipPath><clipPath id="0be25e39e4"><rect x="0" width="12" y="0" height="19"/></clipPath><clipPath id="2cecf11241"><path d="M 657 579 L 658.980469 579 L 658.980469 596 L 657 596 Z M 657 579 " clip-rule="nonzero"/></clipPath><clipPath id="67e5382a0d"><path d="M 657.941406 579.09375 C 658.460938 579.09375 658.863281 579.53125 658.863281 580.074219 L 658.863281 594.914062 C 658.863281 595.402344 658.453125 595.84375 657.941406 595.84375 C 657.433594 595.84375 657.023438 595.414062 657.023438 594.914062 L 657.023438 580.074219 C 657.023438 579.53125 657.433594 579.09375 657.941406 579.09375 " clip-rule="nonzero"/></clipPath><clipPath id="8057d5e4b1"><path d="M 0 0 L 1.980469 0 L 1.980469 16.921875 L 0 16.921875 Z M 0 0 " clip-rule="nonzero"/></clipPath><clipPath id="8b8cb93bdc"><path d="M 0.941406 0.09375 C 1.460938 0.09375 1.863281 0.53125 1.863281 1.074219 L 1.863281 15.914062 C 1.863281 16.402344 1.453125 16.84375 0.941406 16.84375 C 0.433594 16.84375 0.0234375 16.414062 0.0234375 15.914062 L 0.0234375 1.074219 C 0.0234375 0.53125 0.433594 0.09375 0.941406 0.09375 " clip-rule="nonzero"/></clipPath><clipPath id="9c38dc9c0d"><rect x="0" width="2" y="0" height="17"/></clipPath><clipPath id="792795db72"><path d="M 661.589844 583.289062 L 673 583.289062 L 673 596 L 661.589844 596 Z M 661.589844 583.289062 " clip-rule="nonzero"/></clipPath><clipPath id="c0cee4c7a1"><path d="M 667.222656 583.382812 C 670.183594 583.382812 672.632812 585.800781 672.632812 588.792969 L 672.632812 594.960938 C 672.632812 595.453125 672.222656 595.832031 671.761719 595.832031 C 671.300781 595.832031 670.894531 595.453125 670.894531 594.960938 L 670.894531 588.792969 C 670.894531 586.78125 669.234375 585.09375 667.222656 585.09375 C 665.152344 585.09375 663.503906 586.773438 663.503906 588.792969 L 663.503906 594.960938 C 663.503906 595.453125 663.121094 595.832031 662.664062 595.832031 C 662.171875 595.832031 661.792969 595.453125 661.792969 594.960938 L 661.792969 588.792969 C 661.792969 585.800781 664.242188 583.382812 667.234375 583.382812 " clip-rule="nonzero"/></clipPath><clipPath id="4e2ab274d1"><path d="M 0.679688 0.289062 L 11.71875 0.289062 L 11.71875 12.921875 L 0.679688 12.921875 Z M 0.679688 0.289062 " clip-rule="nonzero"/></clipPath><clipPath id="3a8e3860a0"><path d="M 6.222656 0.382812 C 9.183594 0.382812 11.632812 2.800781 11.632812 5.792969 L 11.632812 11.960938 C 11.632812 12.453125 11.222656 12.832031 10.761719 12.832031 C 10.300781 12.832031 9.894531 12.453125 9.894531 11.960938 L 9.894531 5.792969 C 9.894531 3.78125 8.234375 2.09375 6.222656 2.09375 C 4.152344 2.09375 2.503906 3.773438 2.503906 5.792969 L 2.503906 11.960938 C 2.503906 12.453125 2.121094 12.832031 1.664062 12.832031 C 1.171875 12.832031 0.792969 12.453125 0.792969 11.960938 L 0.792969 5.792969 C 0.792969 2.800781 3.242188 0.382812 6.234375 0.382812 " clip-rule="nonzero"/></clipPath><clipPath id="f1392588e4"><rect x="0" width="12" y="0" height="13"/></clipPath><clipPath id="a286ddb07b"><path d="M 675.148438 579 L 685.582031 579 L 685.582031 596 L 675.148438 596 Z M 675.148438 579 " clip-rule="nonzero"/></clipPath><clipPath id="ec218493a4"><path d="M 677.113281 590.742188 L 683.550781 583.652344 C 683.742188 583.460938 683.960938 583.382812 684.203125 583.382812 C 684.421875 583.382812 684.613281 583.460938 684.773438 583.621094 C 685.101562 583.953125 685.101562 584.492188 684.800781 584.824219 L 681.210938 588.792969 L 685.234375 594.503906 C 685.472656 594.914062 685.394531 595.421875 685.011719 595.703125 C 684.851562 595.78125 684.683594 595.84375 684.550781 595.84375 C 684.253906 595.84375 683.984375 595.703125 683.824219 595.460938 L 679.992188 590.050781 L 677.113281 593.261719 L 677.113281 594.972656 C 677.113281 595.460938 676.761719 595.84375 676.292969 595.84375 C 675.800781 595.84375 675.421875 595.460938 675.421875 594.972656 L 675.421875 579.972656 C 675.421875 579.480469 675.800781 579.101562 676.292969 579.101562 C 676.753906 579.101562 677.113281 579.480469 677.113281 579.972656 Z M 677.113281 590.742188 " clip-rule="nonzero"/></clipPath><clipPath id="767634d1da"><path d="M 0.359375 0 L 10.582031 0 L 10.582031 16.921875 L 0.359375 16.921875 Z M 0.359375 0 " clip-rule="nonzero"/></clipPath><clipPath id="57488bf7d6"><path d="M 2.113281 11.742188 L 8.550781 4.652344 C 8.742188 4.460938 8.960938 4.382812 9.203125 4.382812 C 9.421875 4.382812 9.613281 4.460938 9.773438 4.621094 C 10.101562 4.953125 10.101562 5.492188 9.800781 5.824219 L 6.210938 9.792969 L 10.234375 15.503906 C 10.472656 15.914062 10.394531 16.421875 10.011719 16.703125 C 9.851562 16.78125 9.683594 16.84375 9.550781 16.84375 C 9.253906 16.84375 8.984375 16.703125 8.824219 16.460938 L 4.992188 11.050781 L 2.113281 14.261719 L 2.113281 15.972656 C 2.113281 16.460938 1.761719 16.84375 1.292969 16.84375 C 0.800781 16.84375 0.421875 16.460938 0.421875 15.972656 L 0.421875 0.972656 C 0.421875 0.480469 0.800781 0.101562 1.292969 0.101562 C 1.753906 0.101562 2.113281 0.480469 2.113281 0.972656 Z M 2.113281 11.742188 " clip-rule="nonzero"/></clipPath><clipPath id="28671f7f9d"><rect x="0" width="11" y="0" height="17"/></clipPath></defs><g clip-path="url(#0e0e315779)"><g transform="matrix(1, 0, 0, 1, 295, 479)"><g clip-path="url(#a17b894eba)"><g clip-path="url(#2cc60124a2)"><rect x="-532.6" width="1555.2" fill="#010203" height="1555.199922" y="-716.599988" fill-opacity="1"/></g></g></g></g><g clip-path="url(#fa5e296cfa)"><g clip-path="url(#447e8e0647)"><g transform="matrix(1, 0, 0, 1, 318, 503)"><g clip-path="url(#5520560e22)"><g clip-path="url(#3d280b8fb0)"><g clip-path="url(#a9418e2ffa)"><rect x="-555.6" width="1555.2" fill="#010203" height="1555.199922" y="-740.599988" fill-opacity="1"/></g></g></g></g></g></g><g clip-path="url(#fca2a4f1a9)"><g clip-path="url(#f71fc38ef2)"><g transform="matrix(1, 0, 0, 1, 382, 479)"><g clip-path="url(#e44868cac8)"><g clip-path="url(#a750ce1bc1)"><g clip-path="url(#cd2fda78f5)"><rect x="-619.6" width="1555.2" fill="#010203" height="1555.199922" y="-716.599988" fill-opacity="1"/></g></g></g></g></g></g><g clip-path="url(#c33e9f7404)"><g clip-path="url(#83393f06d1)"><g transform="matrix(1, 0, 0, 1, 444, 503)"><g clip-path="url(#9f76bb8347)"><g clip-path="url(#25eceefdb1)"><g clip-path="url(#96a566c605)"><rect x="-681.6" width="1555.2" fill="#010203" height="1555.199922" y="-740.599988" fill-opacity="1"/></g></g></g></g></g></g><g clip-path="url(#7e2ae84cd5)"><g clip-path="url(#6fcc57dd66)"><g transform="matrix(1, 0, 0, 1, 499, 503)"><g clip-path="url(#90c560e0fa)"><g clip-path="url(#fff95ceba5)"><g clip-path="url(#51c82274e5)"><rect x="-736.6" width="1555.2" fill="#010203" height="1555.199922" y="-740.599988" fill-opacity="1"/></g></g></g></g></g></g><g clip-path="url(#a55b5fe4a7)"><g clip-path="url(#f2b77801e4)"><g transform="matrix(1, 0, 0, 1, 568, 478)"><g clip-path="url(#6e3da8fbad)"><g clip-path="url(#c688c9db88)"><g clip-path="url(#7d281ddca5)"><rect x="-805.6" width="1555.2" fill="#010203" height="1555.199922" y="-715.599988" fill-opacity="1"/></g></g></g></g></g></g><g clip-path="url(#dc062600f0)"><g clip-path="url(#6c96ea3576)"><g transform="matrix(1, 0, 0, 1, 590, 503)"><g clip-path="url(#6c55ff3de2)"><g clip-path="url(#241ab9c839)"><g clip-path="url(#8000c12b76)"><rect x="-827.6" width="1555.2" fill="#010203" height="1555.199922" y="-740.599988" fill-opacity="1"/></g></g></g></g></g></g><g clip-path="url(#79cc8f023b)"><g clip-path="url(#6b9bbda613)"><g transform="matrix(1, 0, 0, 1, 622, 503)"><g clip-path="url(#f05e42c6d9)"><g clip-path="url(#fbf3a0b72d)"><g clip-path="url(#ad1bff3d2d)"><rect x="-859.6" width="1555.2" fill="#010203" height="1555.199922" y="-740.599988" fill-opacity="1"/></g></g></g></g></g></g><g clip-path="url(#57620d4679)"><g clip-path="url(#0ceca0608b)"><g transform="matrix(1, 0, 0, 1, 528, 579)"><g clip-path="url(#ad1c0d303e)"><g clip-path="url(#8a5707619c)"><g clip-path="url(#582cc45f10)"><rect x="-765.6" width="1555.2" fill="#010203" height="1555.199922" y="-816.599988" fill-opacity="1"/></g></g></g></g></g></g><g clip-path="url(#c593b07475)"><g clip-path="url(#edf1f0411c)"><g transform="matrix(1, 0, 0, 1, 532, 583)"><g clip-path="url(#8cfa9d5157)"><g clip-path="url(#95c3c21291)"><g clip-path="url(#d75e334ffd)"><rect x="-769.6" width="1555.2" fill="#010203" height="1555.199922" y="-820.599988" fill-opacity="1"/></g></g></g></g></g></g><g clip-path="url(#58b35515fb)"><g clip-path="url(#c7b13e1cef)"><g transform="matrix(1, 0, 0, 1, 545, 583)"><g clip-path="url(#ad980da3c9)"><g clip-path="url(#406a745ab9)"><g clip-path="url(#ccc2e3ca51)"><rect x="-782.6" width="1555.2" fill="#010203" height="1555.199922" y="-820.599988" fill-opacity="1"/></g></g></g></g></g></g><g clip-path="url(#ae191dcc53)"><g clip-path="url(#582025709f)"><g transform="matrix(1, 0, 0, 1, 558, 583)"><g clip-path="url(#d631ba862a)"><g clip-path="url(#7303b019e0)"><g clip-path="url(#36a3649d65)"><rect x="-795.6" width="1555.2" fill="#010203" height="1555.199922" y="-820.599988" fill-opacity="1"/></g></g></g></g></g></g><g clip-path="url(#9e20b00009)"><g clip-path="url(#48192aeaa1)"><g transform="matrix(1, 0, 0, 1, 572, 579)"><g clip-path="url(#7f259b868b)"><g clip-path="url(#def0dae69e)"><g clip-path="url(#1153f07c11)"><rect x="-809.6" width="1555.2" fill="#010203" height="1555.199922" y="-816.599988" fill-opacity="1"/></g></g></g></g></g></g><g clip-path="url(#1e8c814f4a)"><g clip-path="url(#e110a9b38e)"><g transform="matrix(1, 0, 0, 1, 577, 583)"><g clip-path="url(#9544aabc92)"><g clip-path="url(#4d84a46056)"><g clip-path="url(#fe109e10ea)"><rect x="-814.6" width="1555.2" fill="#010203" height="1555.199922" y="-820.599988" fill-opacity="1"/></g></g></g></g></g></g><g clip-path="url(#f05a216e27)"><g clip-path="url(#8e39a917db)"><g transform="matrix(1, 0, 0, 1, 584, 583)"><g clip-path="url(#c2af4d6459)"><g clip-path="url(#4d2e62a294)"><g clip-path="url(#d3c2ff3fdb)"><rect x="-821.6" width="1555.2" fill="#010203" height="1555.199922" y="-820.599988" fill-opacity="1"/></g></g></g></g></g></g><g clip-path="url(#45ced3d397)"><g clip-path="url(#e38083ac85)"><g transform="matrix(1, 0, 0, 1, 598, 579)"><g clip-path="url(#a5bad83c1f)"><g clip-path="url(#e27627faa9)"><g clip-path="url(#6098485ed1)"><rect x="-835.6" width="1555.2" fill="#010203" height="1555.199922" y="-816.599988" fill-opacity="1"/></g></g></g></g></g></g><g clip-path="url(#dfee54fd45)"><g clip-path="url(#a5ba9047bf)"><g transform="matrix(1, 0, 0, 1, 620, 579)"><g clip-path="url(#c1d7ee98fd)"><g clip-path="url(#67b2ad19ea)"><g clip-path="url(#1e42f99c17)"><rect x="-857.6" width="1555.2" fill="#010203" height="1555.199922" y="-816.599988" fill-opacity="1"/></g></g></g></g></g></g><g clip-path="url(#75708e9522)"><g clip-path="url(#d55cd1047d)"><g transform="matrix(1, 0, 0, 1, 635, 583)"><g clip-path="url(#0be25e39e4)"><g clip-path="url(#0bea11475e)"><g clip-path="url(#0a99b84817)"><rect x="-872.6" width="1555.2" fill="#010203" height="1555.199922" y="-820.599988" fill-opacity="1"/></g></g></g></g></g></g><g clip-path="url(#2cecf11241)"><g clip-path="url(#67e5382a0d)"><g transform="matrix(1, 0, 0, 1, 657, 579)"><g clip-path="url(#9c38dc9c0d)"><g clip-path="url(#8057d5e4b1)"><g clip-path="url(#8b8cb93bdc)"><rect x="-894.6" width="1555.2" fill="#010203" height="1555.199922" y="-816.599988" fill-opacity="1"/></g></g></g></g></g></g><g clip-path="url(#792795db72)"><g clip-path="url(#c0cee4c7a1)"><g transform="matrix(1, 0, 0, 1, 661, 583)"><g clip-path="url(#f1392588e4)"><g clip-path="url(#4e2ab274d1)"><g clip-path="url(#3a8e3860a0)"><rect x="-898.6" width="1555.2" fill="#010203" height="1555.199922" y="-820.599988" fill-opacity="1"/></g></g></g></g></g></g><g clip-path="url(#a286ddb07b)"><g clip-path="url(#ec218493a4)"><g transform="matrix(1, 0, 0, 1, 675, 579)"><g clip-path="url(#28671f7f9d)"><g clip-path="url(#767634d1da)"><g clip-path="url(#57488bf7d6)"><rect x="-912.6" width="1555.2" fill="#010203" height="1555.199922" y="-816.599988" fill-opacity="1"/></g></g></g></g></g></g></svg>