<svg xmlns="http://www.w3.org/2000/svg" xmlns:xlink="http://www.w3.org/1999/xlink" width="1440" zoomAndPan="magnify" viewBox="0 0 1080 1079.999946" height="1440" preserveAspectRatio="xMidYMid meet" version="1.0"><defs><clipPath id="83865a63ba"><path d="M 344.871094 454.953125 L 360.292969 454.953125 L 360.292969 541.28125 L 344.871094 541.28125 Z M 344.871094 454.953125 " clip-rule="nonzero"/></clipPath><clipPath id="cb2c363493"><path d="M 0.871094 0.953125 L 16.292969 0.953125 L 16.292969 87.28125 L 0.871094 87.28125 Z M 0.871094 0.953125 " clip-rule="nonzero"/></clipPath><clipPath id="75b7b78519"><rect x="0" width="17" y="0" height="88"/></clipPath><clipPath id="60a105e771"><path d="M 367.511719 478.320312 L 424.882812 478.320312 L 424.882812 541.425781 L 367.511719 541.425781 Z M 367.511719 478.320312 " clip-rule="nonzero"/></clipPath><clipPath id="a8d99d7426"><path d="M 424.421875 504.53125 L 424.421875 541.28125 L 409.621094 541.28125 L 409.621094 504.902344 C 409.621094 496.140625 403.210938 492.203125 396.050781 492.203125 C 388.890625 492.203125 382.480469 496.152344 382.480469 504.902344 L 382.480469 541.28125 L 367.691406 541.28125 L 367.691406 504.53125 C 367.691406 493.800781 375.710938 478.511719 396.0625 478.511719 C 416.410156 478.511719 424.421875 493.800781 424.421875 504.53125 " clip-rule="nonzero"/></clipPath><clipPath id="bbc618319f"><path d="M 0.679688 0.320312 L 57.558594 0.320312 L 57.558594 63.425781 L 0.679688 63.425781 Z M 0.679688 0.320312 " clip-rule="nonzero"/></clipPath><clipPath id="f2ffc68230"><path d="M 57.421875 26.53125 L 57.421875 63.28125 L 42.621094 63.28125 L 42.621094 26.902344 C 42.621094 18.140625 36.210938 14.203125 29.050781 14.203125 C 21.890625 14.203125 15.480469 18.152344 15.480469 26.902344 L 15.480469 63.28125 L 0.691406 63.28125 L 0.691406 26.53125 C 0.691406 15.800781 8.710938 0.511719 29.0625 0.511719 C 49.410156 0.511719 57.421875 15.800781 57.421875 26.53125 " clip-rule="nonzero"/></clipPath><clipPath id="cee82f29d8"><rect x="0" width="58" y="0" height="64"/></clipPath><clipPath id="9f9b08c0ba"><path d="M 431.664062 454.851562 L 492.160156 454.851562 L 492.160156 541.425781 L 431.664062 541.425781 Z M 431.664062 454.851562 " clip-rule="nonzero"/></clipPath><clipPath id="0947a5b8e8"><path d="M 431.832031 454.953125 L 446.632812 454.953125 L 446.632812 517.480469 L 474.5 479.621094 L 492.140625 479.621094 L 469.320312 510.453125 L 491.640625 541.28125 L 474.132812 541.28125 L 460.5625 522.410156 L 446.632812 541.28125 L 431.832031 541.28125 Z M 431.832031 454.953125 " clip-rule="nonzero"/></clipPath><clipPath id="5b12a2ac0d"><path d="M 0.761719 0.851562 L 61.160156 0.851562 L 61.160156 87.425781 L 0.761719 87.425781 Z M 0.761719 0.851562 " clip-rule="nonzero"/></clipPath><clipPath id="900fb788c9"><path d="M 0.832031 0.953125 L 15.632812 0.953125 L 15.632812 63.480469 L 43.5 25.621094 L 61.140625 25.621094 L 38.320312 56.453125 L 60.640625 87.28125 L 43.132812 87.28125 L 29.5625 68.410156 L 15.632812 87.28125 L 0.832031 87.28125 Z M 0.832031 0.953125 " clip-rule="nonzero"/></clipPath><clipPath id="2647ba9a69"><rect x="0" width="62" y="0" height="88"/></clipPath><clipPath id="77f3513490"><path d="M 493.203125 478.320312 L 542.75 478.320312 L 542.75 542.46875 L 493.203125 542.46875 Z M 493.203125 478.320312 " clip-rule="nonzero"/></clipPath><clipPath id="e7a18e14a1"><path d="M 542.710938 522.660156 C 542.710938 535.242188 532.722656 542.023438 518.660156 542.023438 C 505.589844 542.023438 497.199219 536.101562 493.382812 532.652344 L 501.269531 521.0625 C 506.449219 525.992188 512.992188 528.460938 519.03125 528.460938 C 524.089844 528.460938 527.910156 526.730469 527.910156 523.160156 C 527.910156 512.550781 494.359375 519.089844 494.359375 496.523438 C 494.359375 485.171875 502.871094 478.640625 516.8125 478.640625 C 529.019531 478.640625 537.039062 483.570312 542.460938 488.011719 L 534.570312 499.472656 C 528.03125 494.042969 521.621094 492.191406 516.5625 492.191406 C 511.75 492.191406 509.160156 493.792969 509.160156 496.261719 C 509.160156 505.261719 542.710938 499.589844 542.710938 522.660156 " clip-rule="nonzero"/></clipPath><clipPath id="270f4f6b25"><path d="M 0.203125 0.558594 L 49.75 0.558594 L 49.75 64.160156 L 0.203125 64.160156 Z M 0.203125 0.558594 " clip-rule="nonzero"/></clipPath><clipPath id="7e6590d422"><path d="M 49.710938 44.660156 C 49.710938 57.242188 39.722656 64.023438 25.660156 64.023438 C 12.589844 64.023438 4.199219 58.101562 0.382812 54.652344 L 8.269531 43.0625 C 13.449219 47.992188 19.992188 50.460938 26.03125 50.460938 C 31.089844 50.460938 34.910156 48.730469 34.910156 45.160156 C 34.910156 34.550781 1.359375 41.089844 1.359375 18.523438 C 1.359375 7.171875 9.871094 0.640625 23.8125 0.640625 C 36.019531 0.640625 44.039062 5.570312 49.460938 10.011719 L 41.570312 21.472656 C 35.03125 16.042969 28.621094 14.191406 23.5625 14.191406 C 18.75 14.191406 16.160156 15.792969 16.160156 18.261719 C 16.160156 27.261719 49.710938 21.589844 49.710938 44.660156 " clip-rule="nonzero"/></clipPath><clipPath id="1fa3a97cbf"><rect x="0" width="50" y="0" height="65"/></clipPath><clipPath id="725cf7e55e"><path d="M 548 478.320312 L 612.636719 478.320312 L 612.636719 566 L 548 566 Z M 548 478.320312 " clip-rule="nonzero"/></clipPath><clipPath id="7d2fdb9b66"><path d="M 580.210938 492.191406 C 569.972656 492.191406 563.191406 498.972656 563.191406 510.441406 C 563.191406 521.910156 569.972656 528.691406 580.210938 528.691406 C 590.570312 528.691406 597.351562 521.910156 597.351562 510.441406 C 597.351562 498.972656 590.570312 492.191406 580.210938 492.191406 M 548.390625 565.941406 L 548.390625 510.320312 C 548.390625 490.460938 562.570312 478.621094 580.582031 478.621094 C 599.332031 478.621094 612.152344 491.320312 612.152344 510.320312 C 612.152344 529.441406 599.320312 542.261719 581.320312 542.261719 C 572.441406 542.261719 566.152344 539.050781 563.191406 535.230469 L 563.191406 565.941406 Z M 548.390625 565.941406 " clip-rule="nonzero"/></clipPath><clipPath id="3a2cd8958a"><path d="M 0.160156 0.558594 L 64.238281 0.558594 L 64.238281 88 L 0.160156 88 Z M 0.160156 0.558594 " clip-rule="nonzero"/></clipPath><clipPath id="04bf3d56a7"><path d="M 32.210938 14.191406 C 21.972656 14.191406 15.191406 20.972656 15.191406 32.441406 C 15.191406 43.910156 21.972656 50.691406 32.210938 50.691406 C 42.570312 50.691406 49.351562 43.910156 49.351562 32.441406 C 49.351562 20.972656 42.570312 14.191406 32.210938 14.191406 M 0.390625 87.941406 L 0.390625 32.320312 C 0.390625 12.460938 14.570312 0.621094 32.582031 0.621094 C 51.332031 0.621094 64.152344 13.320312 64.152344 32.320312 C 64.152344 51.441406 51.320312 64.261719 33.320312 64.261719 C 24.441406 64.261719 18.152344 61.050781 15.191406 57.230469 L 15.191406 87.941406 Z M 0.390625 87.941406 " clip-rule="nonzero"/></clipPath><clipPath id="90d0d70d58"><rect x="0" width="65" y="0" height="88"/></clipPath><clipPath id="1a0745d1ad"><path d="M 617.332031 453.285156 L 634 453.285156 L 634 541.425781 L 617.332031 541.425781 Z M 617.332031 453.285156 " clip-rule="nonzero"/></clipPath><clipPath id="2830230633"><path d="M 618.320312 479.613281 L 633.121094 479.613281 L 633.121094 541.28125 L 618.320312 541.28125 Z M 625.730469 453.59375 C 630.289062 453.59375 633.871094 457.292969 633.871094 461.730469 C 633.871094 466.421875 630.289062 469.992188 625.730469 469.992188 C 621.171875 469.992188 617.589844 466.410156 617.589844 461.730469 C 617.589844 457.292969 621.171875 453.59375 625.730469 453.59375 " clip-rule="nonzero"/></clipPath><clipPath id="55ede843df"><path d="M 0.519531 0.359375 L 17 0.359375 L 17 88.425781 L 0.519531 88.425781 Z M 0.519531 0.359375 " clip-rule="nonzero"/></clipPath><clipPath id="ee8d928ad9"><path d="M 1.320312 26.613281 L 16.121094 26.613281 L 16.121094 88.28125 L 1.320312 88.28125 Z M 8.730469 0.59375 C 13.289062 0.59375 16.871094 4.292969 16.871094 8.730469 C 16.871094 13.421875 13.289062 16.992188 8.730469 16.992188 C 4.171875 16.992188 0.589844 13.410156 0.589844 8.730469 C 0.589844 4.292969 4.171875 0.59375 8.730469 0.59375 " clip-rule="nonzero"/></clipPath><clipPath id="395facb5ff"><rect x="0" width="17" y="0" height="89"/></clipPath><clipPath id="db80091ff2"><path d="M 639.757812 478.320312 L 670.527344 478.320312 L 670.527344 541.425781 L 639.757812 541.425781 Z M 639.757812 478.320312 " clip-rule="nonzero"/></clipPath><clipPath id="568de6b58a"><path d="M 670.5 478.5 L 670.5 492.070312 C 660.632812 492.070312 654.710938 496.882812 654.710938 506.75 L 654.710938 541.28125 L 639.910156 541.28125 L 639.910156 506.75 C 639.910156 488 651.75 478.511719 670.5 478.511719 " clip-rule="nonzero"/></clipPath><clipPath id="71731b8c9a"><path d="M 0.839844 0.320312 L 31.527344 0.320312 L 31.527344 63.425781 L 0.839844 63.425781 Z M 0.839844 0.320312 " clip-rule="nonzero"/></clipPath><clipPath id="10085f2294"><path d="M 31.5 0.5 L 31.5 14.070312 C 21.632812 14.070312 15.710938 18.882812 15.710938 28.75 L 15.710938 63.28125 L 0.910156 63.28125 L 0.910156 28.75 C 0.910156 10 12.75 0.511719 31.5 0.511719 " clip-rule="nonzero"/></clipPath><clipPath id="42265a644b"><rect x="0" width="32" y="0" height="64"/></clipPath><clipPath id="7ff29f5c42"><path d="M 671.050781 478.320312 L 735.199219 478.320312 L 735.199219 542.46875 L 671.050781 542.46875 Z M 671.050781 478.320312 " clip-rule="nonzero"/></clipPath><clipPath id="a80e0db677"><path d="M 718.722656 501.8125 C 716.128906 495.773438 710.582031 492.3125 703.179688 492.3125 C 695.902344 492.3125 690.351562 495.761719 687.761719 501.8125 Z M 717.121094 522.160156 L 733.28125 522.160156 C 729.210938 534.621094 718.230469 542.390625 703.3125 542.390625 C 684.191406 542.390625 671.371094 529.5625 671.371094 510.453125 C 671.371094 491.460938 684.199219 478.75 703.3125 478.75 C 722.421875 478.75 735.128906 491.453125 735.128906 510.453125 C 735.128906 512.183594 735.011719 513.78125 734.878906 515.382812 L 686.660156 515.382812 C 688.261719 523.890625 694.429688 528.832031 703.191406 528.832031 C 709.359375 528.832031 714.171875 526.492188 717.128906 522.171875 " clip-rule="nonzero"/></clipPath><clipPath id="dc0ac714a9"><path d="M 0.28125 0.558594 L 64.199219 0.558594 L 64.199219 64.398438 L 0.28125 64.398438 Z M 0.28125 0.558594 " clip-rule="nonzero"/></clipPath><clipPath id="4e26e52abf"><path d="M 47.722656 23.8125 C 45.128906 17.773438 39.582031 14.3125 32.179688 14.3125 C 24.902344 14.3125 19.351562 17.761719 16.761719 23.8125 Z M 46.121094 44.160156 L 62.28125 44.160156 C 58.210938 56.621094 47.230469 64.390625 32.3125 64.390625 C 13.191406 64.390625 0.371094 51.5625 0.371094 32.453125 C 0.371094 13.460938 13.199219 0.75 32.3125 0.75 C 51.421875 0.75 64.128906 13.453125 64.128906 32.453125 C 64.128906 34.183594 64.011719 35.78125 63.878906 37.382812 L 15.660156 37.382812 C 17.261719 45.890625 23.429688 50.832031 32.191406 50.832031 C 38.359375 50.832031 43.171875 48.492188 46.128906 44.171875 " clip-rule="nonzero"/></clipPath><clipPath id="50d9563ef3"><rect x="0" width="65" y="0" height="65"/></clipPath><clipPath id="4600f5298c"><path d="M 577 554 L 579 554 L 579 571.675781 L 577 571.675781 Z M 577 554 " clip-rule="nonzero"/></clipPath><clipPath id="1407ff8dca"><path d="M 578.039062 554.441406 C 578.5625 554.441406 578.960938 554.882812 578.960938 555.421875 L 578.960938 570.261719 C 578.960938 570.75 578.550781 571.191406 578.039062 571.191406 C 577.53125 571.191406 577.121094 570.761719 577.121094 570.261719 L 577.121094 555.421875 C 577.121094 554.882812 577.53125 554.441406 578.039062 554.441406 " clip-rule="nonzero"/></clipPath><clipPath id="c079fa30b5"><path d="M 0 0.398438 L 2 0.398438 L 2 17.199219 L 0 17.199219 Z M 0 0.398438 " clip-rule="nonzero"/></clipPath><clipPath id="75998bd055"><path d="M 1.039062 0.441406 C 1.5625 0.441406 1.960938 0.882812 1.960938 1.421875 L 1.960938 16.261719 C 1.960938 16.75 1.550781 17.191406 1.039062 17.191406 C 0.53125 17.191406 0.121094 16.761719 0.121094 16.261719 L 0.121094 1.421875 C 0.121094 0.882812 0.53125 0.441406 1.039062 0.441406 " clip-rule="nonzero"/></clipPath><clipPath id="e5befb0cb8"><rect x="0" width="2" y="0" height="18"/></clipPath><clipPath id="22efdf6e9e"><path d="M 581.867188 558.636719 L 592.820312 558.636719 L 592.820312 571.675781 L 581.867188 571.675781 Z M 581.867188 558.636719 " clip-rule="nonzero"/></clipPath><clipPath id="93e2a532e1"><path d="M 587.332031 558.730469 C 590.289062 558.730469 592.742188 561.152344 592.742188 564.140625 L 592.742188 570.3125 C 592.742188 570.800781 592.332031 571.183594 591.871094 571.183594 C 591.410156 571.183594 591 570.800781 591 570.3125 L 591 564.140625 C 591 562.132812 589.339844 560.441406 587.332031 560.441406 C 585.261719 560.441406 583.609375 562.121094 583.609375 564.140625 L 583.609375 570.3125 C 583.609375 570.800781 583.230469 571.183594 582.769531 571.183594 C 582.28125 571.183594 581.902344 570.800781 581.902344 570.3125 L 581.902344 564.140625 C 581.902344 561.152344 584.351562 558.730469 587.339844 558.730469 " clip-rule="nonzero"/></clipPath><clipPath id="4b4db5c6b9"><path d="M 0.867188 0.71875 L 11.800781 0.71875 L 11.800781 13.199219 L 0.867188 13.199219 Z M 0.867188 0.71875 " clip-rule="nonzero"/></clipPath><clipPath id="dc7e6998e6"><path d="M 6.332031 0.730469 C 9.289062 0.730469 11.742188 3.152344 11.742188 6.140625 L 11.742188 12.3125 C 11.742188 12.800781 11.332031 13.183594 10.871094 13.183594 C 10.410156 13.183594 10 12.800781 10 12.3125 L 10 6.140625 C 10 4.132812 8.339844 2.441406 6.332031 2.441406 C 4.261719 2.441406 2.609375 4.121094 2.609375 6.140625 L 2.609375 12.3125 C 2.609375 12.800781 2.230469 13.183594 1.769531 13.183594 C 1.28125 13.183594 0.902344 12.800781 0.902344 12.3125 L 0.902344 6.140625 C 0.902344 3.152344 3.351562 0.730469 6.339844 0.730469 " clip-rule="nonzero"/></clipPath><clipPath id="eaf934dd96"><rect x="0" width="12" y="0" height="14"/></clipPath><clipPath id="9a91fabe45"><path d="M 594.382812 558.636719 L 605.859375 558.636719 L 605.859375 571.675781 L 594.382812 571.675781 Z M 594.382812 558.636719 " clip-rule="nonzero"/></clipPath><clipPath id="5a7426413b"><path d="M 598.472656 558.730469 L 603.742188 558.730469 C 604.199219 558.730469 604.582031 559.140625 604.582031 559.601562 C 604.582031 560.042969 604.199219 560.441406 603.742188 560.441406 L 598.359375 560.441406 C 596.320312 560.441406 595.859375 562.511719 597.820312 563.273438 L 602.929688 565.152344 C 605 565.910156 605.699219 567.570312 605.320312 568.933594 C 604.960938 570.152344 603.710938 571.191406 601.8125 571.191406 L 596.179688 571.191406 C 595.691406 571.191406 595.3125 570.8125 595.3125 570.320312 C 595.3125 569.863281 595.691406 569.480469 596.179688 569.480469 L 601.941406 569.480469 C 603.921875 569.480469 604.410156 567.441406 602.460938 566.652344 L 597.351562 564.75 C 595.28125 564.011719 594.582031 562.363281 594.960938 561 C 595.3125 559.78125 596.5625 558.742188 598.472656 558.742188 Z M 598.472656 558.730469 " clip-rule="nonzero"/></clipPath><clipPath id="a705699b5b"><path d="M 0.480469 0.71875 L 11.761719 0.71875 L 11.761719 13.199219 L 0.480469 13.199219 Z M 0.480469 0.71875 " clip-rule="nonzero"/></clipPath><clipPath id="f1a1d3683d"><path d="M 4.472656 0.730469 L 9.742188 0.730469 C 10.199219 0.730469 10.582031 1.140625 10.582031 1.601562 C 10.582031 2.042969 10.199219 2.441406 9.742188 2.441406 L 4.359375 2.441406 C 2.320312 2.441406 1.859375 4.511719 3.820312 5.273438 L 8.929688 7.152344 C 11 7.910156 11.699219 9.570312 11.320312 10.933594 C 10.960938 12.152344 9.710938 13.191406 7.8125 13.191406 L 2.179688 13.191406 C 1.691406 13.191406 1.3125 12.8125 1.3125 12.320312 C 1.3125 11.863281 1.691406 11.480469 2.179688 11.480469 L 7.941406 11.480469 C 9.921875 11.480469 10.410156 9.441406 8.460938 8.652344 L 3.351562 6.75 C 1.28125 6.011719 0.582031 4.363281 0.960938 3 C 1.3125 1.78125 2.5625 0.742188 4.472656 0.742188 Z M 4.472656 0.730469 " clip-rule="nonzero"/></clipPath><clipPath id="3584b5f0e5"><rect x="0" width="12" y="0" height="14"/></clipPath><clipPath id="692ed4dc18"><path d="M 607 558.636719 L 619.941406 558.636719 L 619.941406 575.847656 L 607 575.847656 Z M 607 558.636719 " clip-rule="nonzero"/></clipPath><clipPath id="92b1243649"><path d="M 613.601562 560.421875 C 611.132812 560.421875 609.089844 562.460938 609.089844 564.960938 C 609.089844 567.460938 611.132812 569.472656 613.601562 569.472656 C 616.132812 569.472656 618.140625 567.460938 618.140625 564.960938 C 618.140625 562.460938 616.132812 560.421875 613.601562 560.421875 M 613.601562 558.730469 C 617.050781 558.730469 619.851562 561.5 619.851562 564.960938 C 619.851562 568.421875 617.050781 571.183594 613.601562 571.183594 C 611.699219 571.183594 610.011719 570.230469 609.089844 568.761719 L 609.089844 574.601562 C 609.089844 575.0625 608.710938 575.441406 608.25 575.441406 C 607.789062 575.441406 607.410156 575.0625 607.410156 574.601562 L 607.410156 564.953125 C 607.410156 561.5 610.210938 558.722656 613.609375 558.722656 " clip-rule="nonzero"/></clipPath><clipPath id="a5c229d126"><path d="M 0.199219 0.71875 L 12.921875 0.71875 L 12.921875 17.519531 L 0.199219 17.519531 Z M 0.199219 0.71875 " clip-rule="nonzero"/></clipPath><clipPath id="067743d98e"><path d="M 6.601562 2.421875 C 4.132812 2.421875 2.089844 4.460938 2.089844 6.960938 C 2.089844 9.460938 4.132812 11.472656 6.601562 11.472656 C 9.132812 11.472656 11.140625 9.460938 11.140625 6.960938 C 11.140625 4.460938 9.132812 2.421875 6.601562 2.421875 M 6.601562 0.730469 C 10.050781 0.730469 12.851562 3.5 12.851562 6.960938 C 12.851562 10.421875 10.050781 13.183594 6.601562 13.183594 C 4.699219 13.183594 3.011719 12.230469 2.089844 10.761719 L 2.089844 16.601562 C 2.089844 17.0625 1.710938 17.441406 1.25 17.441406 C 0.789062 17.441406 0.410156 17.0625 0.410156 16.601562 L 0.410156 6.953125 C 0.410156 3.5 3.210938 0.722656 6.609375 0.722656 " clip-rule="nonzero"/></clipPath><clipPath id="85cf55f2d6"><rect x="0" width="13" y="0" height="18"/></clipPath><clipPath id="7082491ee5"><path d="M 622.027344 555 L 624.632812 555 L 624.632812 571.675781 L 622.027344 571.675781 Z M 622.027344 555 " clip-rule="nonzero"/></clipPath><clipPath id="cb8a41c8f0"><path d="M 623.132812 558.730469 C 623.589844 558.730469 623.972656 559.140625 623.972656 559.570312 L 623.972656 570.3125 C 623.972656 570.800781 623.589844 571.183594 623.132812 571.183594 C 622.640625 571.183594 622.261719 570.800781 622.261719 570.3125 L 622.261719 559.570312 C 622.261719 559.140625 622.640625 558.730469 623.132812 558.730469 M 623.132812 555.222656 C 623.730469 555.222656 624.222656 555.710938 624.222656 556.332031 C 624.222656 556.933594 623.730469 557.390625 623.132812 557.390625 C 622.53125 557.390625 622.039062 556.933594 622.039062 556.332031 C 622.039062 555.703125 622.53125 555.222656 623.132812 555.222656 " clip-rule="nonzero"/></clipPath><clipPath id="9e0a37a3d9"><path d="M 0.0273438 0.121094 L 2.238281 0.121094 L 2.238281 16.199219 L 0.0273438 16.199219 Z M 0.0273438 0.121094 " clip-rule="nonzero"/></clipPath><clipPath id="ae77302e8b"><path d="M 1.132812 3.730469 C 1.589844 3.730469 1.972656 4.140625 1.972656 4.570312 L 1.972656 15.3125 C 1.972656 15.800781 1.589844 16.183594 1.132812 16.183594 C 0.640625 16.183594 0.261719 15.800781 0.261719 15.3125 L 0.261719 4.570312 C 0.261719 4.140625 0.640625 3.730469 1.132812 3.730469 M 1.132812 0.222656 C 1.730469 0.222656 2.222656 0.710938 2.222656 1.332031 C 2.222656 1.933594 1.730469 2.390625 1.132812 2.390625 C 0.53125 2.390625 0.0390625 1.933594 0.0390625 1.332031 C 0.0390625 0.703125 0.53125 0.222656 1.132812 0.222656 " clip-rule="nonzero"/></clipPath><clipPath id="2b95e60dcd"><rect x="0" width="3" y="0" height="17"/></clipPath><clipPath id="ce0cd747b3"><path d="M 626.71875 558.636719 L 633.5 558.636719 L 633.5 571.675781 L 626.71875 571.675781 Z M 626.71875 558.636719 " clip-rule="nonzero"/></clipPath><clipPath id="724a0172ad"><path d="M 632.210938 558.730469 C 632.671875 558.730469 633.050781 559.140625 633.050781 559.601562 C 633.050781 560.0625 632.671875 560.441406 632.210938 560.441406 C 630.140625 560.441406 628.492188 562.121094 628.492188 564.140625 L 628.492188 570.371094 C 628.492188 570.863281 628.109375 571.242188 627.652344 571.242188 C 627.160156 571.242188 626.78125 570.863281 626.78125 570.371094 L 626.78125 564.140625 C 626.78125 561.152344 629.230469 558.730469 632.222656 558.730469 " clip-rule="nonzero"/></clipPath><clipPath id="83ca2e60c6"><path d="M 0.71875 0.71875 L 7.121094 0.71875 L 7.121094 13.441406 L 0.71875 13.441406 Z M 0.71875 0.71875 " clip-rule="nonzero"/></clipPath><clipPath id="e7660c47e7"><path d="M 6.210938 0.730469 C 6.671875 0.730469 7.050781 1.140625 7.050781 1.601562 C 7.050781 2.0625 6.671875 2.441406 6.210938 2.441406 C 4.140625 2.441406 2.492188 4.121094 2.492188 6.140625 L 2.492188 12.371094 C 2.492188 12.863281 2.109375 13.242188 1.652344 13.242188 C 1.160156 13.242188 0.78125 12.863281 0.78125 12.371094 L 0.78125 6.140625 C 0.78125 3.152344 3.230469 0.730469 6.222656 0.730469 " clip-rule="nonzero"/></clipPath><clipPath id="0487658f47"><rect x="0" width="8" y="0" height="14"/></clipPath><clipPath id="8ab04d8806"><path d="M 633.5 558.636719 L 646 558.636719 L 646 571.675781 L 633.5 571.675781 Z M 633.5 558.636719 " clip-rule="nonzero"/></clipPath><clipPath id="e0d9bc9de7"><path d="M 639.730469 560.441406 C 637.472656 560.441406 635.601562 562.152344 635.332031 564.332031 L 644.109375 564.332031 C 643.890625 562.152344 641.992188 560.441406 639.730469 560.441406 M 639.730469 558.730469 C 642.960938 558.730469 645.660156 561.230469 645.871094 564.410156 C 646.03125 565.121094 645.761719 565.613281 644.921875 565.613281 L 635.332031 565.613281 C 635.601562 567.792969 637.480469 569.472656 639.730469 569.472656 C 640.949219 569.472656 642.089844 568.953125 642.910156 568.140625 C 643.101562 567.980469 643.320312 567.902344 643.511719 567.902344 C 643.75 567.902344 643.972656 567.980469 644.109375 568.140625 C 644.460938 568.492188 644.460938 569.011719 644.109375 569.363281 C 643 570.472656 641.449219 571.183594 639.730469 571.183594 C 636.3125 571.183594 633.511719 568.382812 633.511719 564.960938 C 633.511719 561.542969 636.3125 558.742188 639.730469 558.742188 " clip-rule="nonzero"/></clipPath><clipPath id="c7a26dc754"><path d="M 0.5 0.71875 L 13 0.71875 L 13 13.199219 L 0.5 13.199219 Z M 0.5 0.71875 " clip-rule="nonzero"/></clipPath><clipPath id="2d0f674f65"><path d="M 6.730469 2.441406 C 4.472656 2.441406 2.601562 4.152344 2.332031 6.332031 L 11.109375 6.332031 C 10.890625 4.152344 8.992188 2.441406 6.730469 2.441406 M 6.730469 0.730469 C 9.960938 0.730469 12.660156 3.230469 12.871094 6.410156 C 13.03125 7.121094 12.761719 7.613281 11.921875 7.613281 L 2.332031 7.613281 C 2.601562 9.792969 4.480469 11.472656 6.730469 11.472656 C 7.949219 11.472656 9.089844 10.953125 9.910156 10.140625 C 10.101562 9.980469 10.320312 9.902344 10.511719 9.902344 C 10.75 9.902344 10.972656 9.980469 11.109375 10.140625 C 11.460938 10.492188 11.460938 11.011719 11.109375 11.363281 C 10 12.472656 8.449219 13.183594 6.730469 13.183594 C 3.3125 13.183594 0.511719 10.382812 0.511719 6.960938 C 0.511719 3.542969 3.3125 0.742188 6.730469 0.742188 " clip-rule="nonzero"/></clipPath><clipPath id="69085ca7b0"><rect x="0" width="13" y="0" height="14"/></clipPath><clipPath id="130fe5119b"><path d="M 647.058594 554 L 660.097656 554 L 660.097656 571.675781 L 647.058594 571.675781 Z M 647.058594 554 " clip-rule="nonzero"/></clipPath><clipPath id="0a015759d1"><path d="M 649.261719 564.953125 C 649.261719 567.453125 651.300781 569.460938 653.769531 569.460938 C 656.269531 569.460938 658.25 567.453125 658.25 564.953125 C 658.25 562.421875 656.269531 560.410156 653.769531 560.410156 C 651.300781 560.410156 649.261719 562.421875 649.261719 564.953125 M 647.570312 564.953125 C 647.570312 561.5 650.339844 558.722656 653.769531 558.722656 C 655.699219 558.722656 657.332031 559.703125 658.25 561.140625 L 658.25 555.300781 C 658.25 554.8125 658.660156 554.433594 659.121094 554.433594 C 659.609375 554.433594 660.019531 554.8125 660.019531 555.300781 L 660.019531 564.953125 C 660.019531 568.402344 657.222656 571.171875 653.769531 571.171875 C 650.351562 571.171875 647.570312 568.402344 647.570312 564.953125 " clip-rule="nonzero"/></clipPath><clipPath id="8ba5c5aff8"><path d="M 0.519531 0.398438 L 13.097656 0.398438 L 13.097656 17.199219 L 0.519531 17.199219 Z M 0.519531 0.398438 " clip-rule="nonzero"/></clipPath><clipPath id="17e8f98d8f"><path d="M 2.261719 10.953125 C 2.261719 13.453125 4.300781 15.460938 6.769531 15.460938 C 9.269531 15.460938 11.25 13.453125 11.25 10.953125 C 11.25 8.421875 9.269531 6.410156 6.769531 6.410156 C 4.300781 6.410156 2.261719 8.421875 2.261719 10.953125 M 0.570312 10.953125 C 0.570312 7.5 3.339844 4.722656 6.769531 4.722656 C 8.699219 4.722656 10.332031 5.703125 11.25 7.140625 L 11.25 1.300781 C 11.25 0.8125 11.660156 0.433594 12.121094 0.433594 C 12.609375 0.433594 13.019531 0.8125 13.019531 1.300781 L 13.019531 10.953125 C 13.019531 14.402344 10.222656 17.171875 6.769531 17.171875 C 3.351562 17.171875 0.570312 14.402344 0.570312 10.953125 " clip-rule="nonzero"/></clipPath><clipPath id="15cdab9683"><rect x="0" width="14" y="0" height="18"/></clipPath><clipPath id="2b17a0bdf6"><path d="M 670.007812 554 L 682.523438 554 L 682.523438 571.675781 L 670.007812 571.675781 Z M 670.007812 554 " clip-rule="nonzero"/></clipPath><clipPath id="7082771992"><path d="M 671.8125 564.953125 C 671.8125 567.453125 673.820312 569.460938 676.289062 569.460938 C 678.789062 569.460938 680.800781 567.453125 680.800781 564.953125 C 680.800781 562.421875 678.789062 560.410156 676.289062 560.410156 C 673.820312 560.410156 671.8125 562.421875 671.8125 564.953125 M 670.070312 555.300781 C 670.070312 554.8125 670.449219 554.433594 670.941406 554.433594 C 671.429688 554.433594 671.8125 554.8125 671.8125 555.300781 L 671.8125 561.140625 C 672.730469 559.703125 674.421875 558.722656 676.289062 558.722656 C 679.742188 558.722656 682.511719 561.492188 682.511719 564.953125 C 682.511719 568.410156 679.742188 571.171875 676.289062 571.171875 C 672.871094 571.171875 670.070312 568.402344 670.070312 564.953125 Z M 670.070312 555.300781 " clip-rule="nonzero"/></clipPath><clipPath id="f3639c9ae1"><path d="M 0.0078125 0.398438 L 12.523438 0.398438 L 12.523438 17.199219 L 0.0078125 17.199219 Z M 0.0078125 0.398438 " clip-rule="nonzero"/></clipPath><clipPath id="551b49959a"><path d="M 1.8125 10.953125 C 1.8125 13.453125 3.820312 15.460938 6.289062 15.460938 C 8.789062 15.460938 10.800781 13.453125 10.800781 10.953125 C 10.800781 8.421875 8.789062 6.410156 6.289062 6.410156 C 3.820312 6.410156 1.8125 8.421875 1.8125 10.953125 M 0.0703125 1.300781 C 0.0703125 0.8125 0.449219 0.433594 0.941406 0.433594 C 1.429688 0.433594 1.8125 0.8125 1.8125 1.300781 L 1.8125 7.140625 C 2.730469 5.703125 4.421875 4.722656 6.289062 4.722656 C 9.742188 4.722656 12.511719 7.492188 12.511719 10.953125 C 12.511719 14.410156 9.742188 17.171875 6.289062 17.171875 C 2.871094 17.171875 0.0703125 14.402344 0.0703125 10.953125 Z M 0.0703125 1.300781 " clip-rule="nonzero"/></clipPath><clipPath id="a4e50f2ce2"><rect x="0" width="13" y="0" height="18"/></clipPath><clipPath id="fded07f5a8"><path d="M 684.609375 558.636719 L 695.5625 558.636719 L 695.5625 577.414062 L 684.609375 577.414062 Z M 684.609375 558.636719 " clip-rule="nonzero"/></clipPath><clipPath id="ff23c8188b"><path d="M 690.121094 575.421875 C 691.722656 575.421875 693.140625 574.582031 693.921875 573.300781 C 694.109375 573.03125 694.382812 572.890625 694.679688 572.890625 C 694.820312 572.890625 694.980469 572.941406 695.109375 573.023438 C 695.519531 573.292969 695.628906 573.8125 695.378906 574.222656 C 694.289062 575.960938 692.3125 577.101562 690.109375 577.101562 C 687.910156 577.101562 685.980469 575.960938 684.859375 574.222656 C 684.589844 573.8125 684.722656 573.300781 685.128906 573.023438 C 685.269531 572.941406 685.402344 572.890625 685.570312 572.890625 C 685.839844 572.890625 686.140625 573.023438 686.332031 573.300781 C 687.121094 574.582031 688.53125 575.421875 690.109375 575.421875 M 684.699219 559.570312 C 684.699219 559.113281 685.082031 558.730469 685.570312 558.730469 C 686 558.730469 686.410156 559.113281 686.410156 559.570312 L 686.410156 565.742188 C 686.410156 567.78125 688.070312 569.460938 690.109375 569.460938 C 692.152344 569.460938 693.832031 567.773438 693.832031 565.742188 L 693.832031 559.570312 C 693.832031 559.113281 694.210938 558.730469 694.671875 558.730469 C 695.128906 558.730469 695.511719 559.113281 695.511719 559.570312 L 695.511719 565.742188 C 695.511719 568.703125 693.089844 571.183594 690.101562 571.183594 C 687.140625 571.183594 684.691406 568.730469 684.691406 565.742188 Z M 684.699219 559.570312 " clip-rule="nonzero"/></clipPath><clipPath id="4de1e8c451"><path d="M 0.609375 0.71875 L 11.5625 0.71875 L 11.5625 19.199219 L 0.609375 19.199219 Z M 0.609375 0.71875 " clip-rule="nonzero"/></clipPath><clipPath id="3f8824961e"><path d="M 6.121094 17.421875 C 7.722656 17.421875 9.140625 16.582031 9.921875 15.300781 C 10.109375 15.03125 10.382812 14.890625 10.679688 14.890625 C 10.820312 14.890625 10.980469 14.941406 11.109375 15.023438 C 11.519531 15.292969 11.628906 15.8125 11.378906 16.222656 C 10.289062 17.960938 8.3125 19.101562 6.109375 19.101562 C 3.910156 19.101562 1.980469 17.960938 0.859375 16.222656 C 0.589844 15.8125 0.722656 15.300781 1.128906 15.023438 C 1.269531 14.941406 1.402344 14.890625 1.570312 14.890625 C 1.839844 14.890625 2.140625 15.023438 2.332031 15.300781 C 3.121094 16.582031 4.53125 17.421875 6.109375 17.421875 M 0.699219 1.570312 C 0.699219 1.113281 1.082031 0.730469 1.570312 0.730469 C 2 0.730469 2.410156 1.113281 2.410156 1.570312 L 2.410156 7.742188 C 2.410156 9.78125 4.070312 11.460938 6.109375 11.460938 C 8.152344 11.460938 9.832031 9.773438 9.832031 7.742188 L 9.832031 1.570312 C 9.832031 1.113281 10.210938 0.730469 10.671875 0.730469 C 11.128906 0.730469 11.511719 1.113281 11.511719 1.570312 L 11.511719 7.742188 C 11.511719 10.703125 9.089844 13.183594 6.101562 13.183594 C 3.140625 13.183594 0.691406 10.730469 0.691406 7.742188 Z M 0.699219 1.570312 " clip-rule="nonzero"/></clipPath><clipPath id="b8963186fb"><rect x="0" width="12" y="0" height="20"/></clipPath><clipPath id="420932ce0e"><path d="M 706 554 L 708 554 L 708 571.675781 L 706 571.675781 Z M 706 554 " clip-rule="nonzero"/></clipPath><clipPath id="64bd3616ae"><path d="M 707.039062 554.441406 C 707.5625 554.441406 707.960938 554.882812 707.960938 555.421875 L 707.960938 570.261719 C 707.960938 570.75 707.550781 571.191406 707.039062 571.191406 C 706.53125 571.191406 706.121094 570.761719 706.121094 570.261719 L 706.121094 555.421875 C 706.121094 554.882812 706.53125 554.441406 707.039062 554.441406 " clip-rule="nonzero"/></clipPath><clipPath id="ec6d159566"><path d="M 0.078125 0.398438 L 2 0.398438 L 2 17.199219 L 0.078125 17.199219 Z M 0.078125 0.398438 " clip-rule="nonzero"/></clipPath><clipPath id="fc3613a21c"><path d="M 1.039062 0.441406 C 1.5625 0.441406 1.960938 0.882812 1.960938 1.421875 L 1.960938 16.261719 C 1.960938 16.75 1.550781 17.191406 1.039062 17.191406 C 0.53125 17.191406 0.121094 16.761719 0.121094 16.261719 L 0.121094 1.421875 C 0.121094 0.882812 0.53125 0.441406 1.039062 0.441406 " clip-rule="nonzero"/></clipPath><clipPath id="23edc892a4"><rect x="0" width="2" y="0" height="18"/></clipPath><clipPath id="38f6fcebe1"><path d="M 710.6875 558.636719 L 722 558.636719 L 722 571.675781 L 710.6875 571.675781 Z M 710.6875 558.636719 " clip-rule="nonzero"/></clipPath><clipPath id="1b3d1dec88"><path d="M 716.320312 558.730469 C 719.28125 558.730469 721.730469 561.152344 721.730469 564.140625 L 721.730469 570.3125 C 721.730469 570.800781 721.320312 571.183594 720.859375 571.183594 C 720.402344 571.183594 719.992188 570.800781 719.992188 570.3125 L 719.992188 564.140625 C 719.992188 562.132812 718.332031 560.441406 716.320312 560.441406 C 714.25 560.441406 712.601562 562.121094 712.601562 564.140625 L 712.601562 570.3125 C 712.601562 570.800781 712.222656 571.183594 711.761719 571.183594 C 711.269531 571.183594 710.890625 570.800781 710.890625 570.3125 L 710.890625 564.140625 C 710.890625 561.152344 713.339844 558.730469 716.332031 558.730469 " clip-rule="nonzero"/></clipPath><clipPath id="573a1e13ba"><path d="M 0.878906 0.71875 L 11.921875 0.71875 L 11.921875 13.199219 L 0.878906 13.199219 Z M 0.878906 0.71875 " clip-rule="nonzero"/></clipPath><clipPath id="26ddb3affe"><path d="M 6.320312 0.730469 C 9.28125 0.730469 11.730469 3.152344 11.730469 6.140625 L 11.730469 12.3125 C 11.730469 12.800781 11.320312 13.183594 10.859375 13.183594 C 10.402344 13.183594 9.992188 12.800781 9.992188 12.3125 L 9.992188 6.140625 C 9.992188 4.132812 8.332031 2.441406 6.320312 2.441406 C 4.25 2.441406 2.601562 4.121094 2.601562 6.140625 L 2.601562 12.3125 C 2.601562 12.800781 2.222656 13.183594 1.761719 13.183594 C 1.269531 13.183594 0.890625 12.800781 0.890625 12.3125 L 0.890625 6.140625 C 0.890625 3.152344 3.339844 0.730469 6.332031 0.730469 " clip-rule="nonzero"/></clipPath><clipPath id="3967359ffc"><rect x="0" width="12" y="0" height="14"/></clipPath><clipPath id="1211800e61"><path d="M 724.246094 554 L 734.679688 554 L 734.679688 571.675781 L 724.246094 571.675781 Z M 724.246094 554 " clip-rule="nonzero"/></clipPath><clipPath id="c06e7a3e1d"><path d="M 726.210938 566.089844 L 732.652344 559 C 732.839844 558.8125 733.0625 558.730469 733.300781 558.730469 C 733.519531 558.730469 733.710938 558.8125 733.871094 558.980469 C 734.199219 559.3125 734.199219 559.851562 733.902344 560.171875 L 730.3125 564.140625 L 734.332031 569.851562 C 734.570312 570.261719 734.492188 570.773438 734.109375 571.050781 C 733.949219 571.132812 733.78125 571.191406 733.652344 571.191406 C 733.351562 571.191406 733.082031 571.0625 732.921875 570.8125 L 729.089844 565.402344 L 726.210938 568.613281 L 726.210938 570.320312 C 726.210938 570.8125 725.859375 571.191406 725.390625 571.191406 C 724.902344 571.191406 724.519531 570.8125 724.519531 570.320312 L 724.519531 555.320312 C 724.519531 554.832031 724.902344 554.453125 725.390625 554.453125 C 725.851562 554.453125 726.210938 554.832031 726.210938 555.320312 Z M 726.210938 566.089844 " clip-rule="nonzero"/></clipPath><clipPath id="bc38fad19d"><path d="M 0.320312 0.398438 L 10.640625 0.398438 L 10.640625 17.199219 L 0.320312 17.199219 Z M 0.320312 0.398438 " clip-rule="nonzero"/></clipPath><clipPath id="0a120d48fd"><path d="M 2.210938 12.089844 L 8.652344 5 C 8.839844 4.8125 9.0625 4.730469 9.300781 4.730469 C 9.519531 4.730469 9.710938 4.8125 9.871094 4.980469 C 10.199219 5.3125 10.199219 5.851562 9.902344 6.171875 L 6.3125 10.140625 L 10.332031 15.851562 C 10.570312 16.261719 10.492188 16.773438 10.109375 17.050781 C 9.949219 17.132812 9.78125 17.191406 9.652344 17.191406 C 9.351562 17.191406 9.082031 17.0625 8.921875 16.8125 L 5.089844 11.402344 L 2.210938 14.613281 L 2.210938 16.320312 C 2.210938 16.8125 1.859375 17.191406 1.390625 17.191406 C 0.902344 17.191406 0.519531 16.8125 0.519531 16.320312 L 0.519531 1.320312 C 0.519531 0.832031 0.902344 0.453125 1.390625 0.453125 C 1.851562 0.453125 2.210938 0.832031 2.210938 1.320312 Z M 2.210938 12.089844 " clip-rule="nonzero"/></clipPath><clipPath id="9095d9468f"><rect x="0" width="11" y="0" height="18"/></clipPath></defs><g clip-path="url(#83865a63ba)"><g transform="matrix(1, 0, 0, 1, 344, 454)"><g clip-path="url(#75b7b78519)"><g clip-path="url(#cb2c363493)"><rect x="-581.6" width="1555.2" fill="#ffffff" height="1555.199922" y="-691.599988" fill-opacity="1"/></g></g></g></g><g clip-path="url(#60a105e771)"><g clip-path="url(#a8d99d7426)"><g transform="matrix(1, 0, 0, 1, 367, 478)"><g clip-path="url(#cee82f29d8)"><g clip-path="url(#bbc618319f)"><g clip-path="url(#f2ffc68230)"><rect x="-604.6" width="1555.2" fill="#ffffff" height="1555.199922" y="-715.599988" fill-opacity="1"/></g></g></g></g></g></g><g clip-path="url(#9f9b08c0ba)"><g clip-path="url(#0947a5b8e8)"><g transform="matrix(1, 0, 0, 1, 431, 454)"><g clip-path="url(#2647ba9a69)"><g clip-path="url(#5b12a2ac0d)"><g clip-path="url(#900fb788c9)"><rect x="-668.6" width="1555.2" fill="#ffffff" height="1555.199922" y="-691.599988" fill-opacity="1"/></g></g></g></g></g></g><g clip-path="url(#77f3513490)"><g clip-path="url(#e7a18e14a1)"><g transform="matrix(1, 0, 0, 1, 493, 478)"><g clip-path="url(#1fa3a97cbf)"><g clip-path="url(#270f4f6b25)"><g clip-path="url(#7e6590d422)"><rect x="-730.6" width="1555.2" fill="#ffffff" height="1555.199922" y="-715.599988" fill-opacity="1"/></g></g></g></g></g></g><g clip-path="url(#725cf7e55e)"><g clip-path="url(#7d2fdb9b66)"><g transform="matrix(1, 0, 0, 1, 548, 478)"><g clip-path="url(#90d0d70d58)"><g clip-path="url(#3a2cd8958a)"><g clip-path="url(#04bf3d56a7)"><rect x="-785.6" width="1555.2" fill="#ffffff" height="1555.199922" y="-715.599988" fill-opacity="1"/></g></g></g></g></g></g><g clip-path="url(#1a0745d1ad)"><g clip-path="url(#2830230633)"><g transform="matrix(1, 0, 0, 1, 617, 453)"><g clip-path="url(#395facb5ff)"><g clip-path="url(#55ede843df)"><g clip-path="url(#ee8d928ad9)"><rect x="-854.6" width="1555.2" fill="#ffffff" height="1555.199922" y="-690.599988" fill-opacity="1"/></g></g></g></g></g></g><g clip-path="url(#db80091ff2)"><g clip-path="url(#568de6b58a)"><g transform="matrix(1, 0, 0, 1, 639, 478)"><g clip-path="url(#42265a644b)"><g clip-path="url(#71731b8c9a)"><g clip-path="url(#10085f2294)"><rect x="-876.6" width="1555.2" fill="#ffffff" height="1555.199922" y="-715.599988" fill-opacity="1"/></g></g></g></g></g></g><g clip-path="url(#7ff29f5c42)"><g clip-path="url(#a80e0db677)"><g transform="matrix(1, 0, 0, 1, 671, 478)"><g clip-path="url(#50d9563ef3)"><g clip-path="url(#dc0ac714a9)"><g clip-path="url(#4e26e52abf)"><rect x="-908.6" width="1555.2" fill="#ffffff" height="1555.199922" y="-715.599988" fill-opacity="1"/></g></g></g></g></g></g><g clip-path="url(#4600f5298c)"><g clip-path="url(#1407ff8dca)"><g transform="matrix(1, 0, 0, 1, 577, 554)"><g clip-path="url(#e5befb0cb8)"><g clip-path="url(#c079fa30b5)"><g clip-path="url(#75998bd055)"><rect x="-814.6" width="1555.2" fill="#ffffff" height="1555.199922" y="-791.599988" fill-opacity="1"/></g></g></g></g></g></g><g clip-path="url(#22efdf6e9e)"><g clip-path="url(#93e2a532e1)"><g transform="matrix(1, 0, 0, 1, 581, 558)"><g clip-path="url(#eaf934dd96)"><g clip-path="url(#4b4db5c6b9)"><g clip-path="url(#dc7e6998e6)"><rect x="-818.6" width="1555.2" fill="#ffffff" height="1555.199922" y="-795.599988" fill-opacity="1"/></g></g></g></g></g></g><g clip-path="url(#9a91fabe45)"><g clip-path="url(#5a7426413b)"><g transform="matrix(1, 0, 0, 1, 594, 558)"><g clip-path="url(#3584b5f0e5)"><g clip-path="url(#a705699b5b)"><g clip-path="url(#f1a1d3683d)"><rect x="-831.6" width="1555.2" fill="#ffffff" height="1555.199922" y="-795.599988" fill-opacity="1"/></g></g></g></g></g></g><g clip-path="url(#692ed4dc18)"><g clip-path="url(#92b1243649)"><g transform="matrix(1, 0, 0, 1, 607, 558)"><g clip-path="url(#85cf55f2d6)"><g clip-path="url(#a5c229d126)"><g clip-path="url(#067743d98e)"><rect x="-844.6" width="1555.2" fill="#ffffff" height="1555.199922" y="-795.599988" fill-opacity="1"/></g></g></g></g></g></g><g clip-path="url(#7082491ee5)"><g clip-path="url(#cb8a41c8f0)"><g transform="matrix(1, 0, 0, 1, 622, 555)"><g clip-path="url(#2b95e60dcd)"><g clip-path="url(#9e0a37a3d9)"><g clip-path="url(#ae77302e8b)"><rect x="-859.6" width="1555.2" fill="#ffffff" height="1555.199922" y="-792.599988" fill-opacity="1"/></g></g></g></g></g></g><g clip-path="url(#ce0cd747b3)"><g clip-path="url(#724a0172ad)"><g transform="matrix(1, 0, 0, 1, 626, 558)"><g clip-path="url(#0487658f47)"><g clip-path="url(#83ca2e60c6)"><g clip-path="url(#e7660c47e7)"><rect x="-863.6" width="1555.2" fill="#ffffff" height="1555.199922" y="-795.599988" fill-opacity="1"/></g></g></g></g></g></g><g clip-path="url(#8ab04d8806)"><g clip-path="url(#e0d9bc9de7)"><g transform="matrix(1, 0, 0, 1, 633, 558)"><g clip-path="url(#69085ca7b0)"><g clip-path="url(#c7a26dc754)"><g clip-path="url(#2d0f674f65)"><rect x="-870.6" width="1555.2" fill="#ffffff" height="1555.199922" y="-795.599988" fill-opacity="1"/></g></g></g></g></g></g><g clip-path="url(#130fe5119b)"><g clip-path="url(#0a015759d1)"><g transform="matrix(1, 0, 0, 1, 647, 554)"><g clip-path="url(#15cdab9683)"><g clip-path="url(#8ba5c5aff8)"><g clip-path="url(#17e8f98d8f)"><rect x="-884.6" width="1555.2" fill="#ffffff" height="1555.199922" y="-791.599988" fill-opacity="1"/></g></g></g></g></g></g><g clip-path="url(#2b17a0bdf6)"><g clip-path="url(#7082771992)"><g transform="matrix(1, 0, 0, 1, 670, 554)"><g clip-path="url(#a4e50f2ce2)"><g clip-path="url(#f3639c9ae1)"><g clip-path="url(#551b49959a)"><rect x="-907.6" width="1555.2" fill="#ffffff" height="1555.199922" y="-791.599988" fill-opacity="1"/></g></g></g></g></g></g><g clip-path="url(#fded07f5a8)"><g clip-path="url(#ff23c8188b)"><g transform="matrix(1, 0, 0, 1, 684, 558)"><g clip-path="url(#b8963186fb)"><g clip-path="url(#4de1e8c451)"><g clip-path="url(#3f8824961e)"><rect x="-921.6" width="1555.2" fill="#ffffff" height="1555.199922" y="-795.599988" fill-opacity="1"/></g></g></g></g></g></g><g clip-path="url(#420932ce0e)"><g clip-path="url(#64bd3616ae)"><g transform="matrix(1, 0, 0, 1, 706, 554)"><g clip-path="url(#23edc892a4)"><g clip-path="url(#ec6d159566)"><g clip-path="url(#fc3613a21c)"><rect x="-943.6" width="1555.2" fill="#ffffff" height="1555.199922" y="-791.599988" fill-opacity="1"/></g></g></g></g></g></g><g clip-path="url(#38f6fcebe1)"><g clip-path="url(#1b3d1dec88)"><g transform="matrix(1, 0, 0, 1, 710, 558)"><g clip-path="url(#3967359ffc)"><g clip-path="url(#573a1e13ba)"><g clip-path="url(#26ddb3affe)"><rect x="-947.6" width="1555.2" fill="#ffffff" height="1555.199922" y="-795.599988" fill-opacity="1"/></g></g></g></g></g></g><g clip-path="url(#1211800e61)"><g clip-path="url(#c06e7a3e1d)"><g transform="matrix(1, 0, 0, 1, 724, 554)"><g clip-path="url(#9095d9468f)"><g clip-path="url(#bc38fad19d)"><g clip-path="url(#0a120d48fd)"><rect x="-961.6" width="1555.2" fill="#ffffff" height="1555.199922" y="-791.599988" fill-opacity="1"/></g></g></g></g></g></g></svg>